<svg xmlns="http://www.w3.org/2000/svg" xmlns:xlink="http://www.w3.org/1999/xlink" width="500" zoomAndPan="magnify" viewBox="0 0 375 374.999991" height="500" preserveAspectRatio="xMidYMid meet" version="1.0"><defs><g/><clipPath id="78eb8c6981"><path d="M 213 152 L 242.730469 152 L 242.730469 168 L 213 168 Z M 213 152 " clip-rule="nonzero"/></clipPath><clipPath id="b7d2cd97b0"><path d="M 132.480469 146 L 174 146 L 174 177 L 132.480469 177 Z M 132.480469 146 " clip-rule="nonzero"/></clipPath><clipPath id="c7f66d34d2"><path d="M 195 133.503906 L 234 133.503906 L 234 166 L 195 166 Z M 195 133.503906 " clip-rule="nonzero"/></clipPath><clipPath id="4ff8f7375e"><path d="M 132.480469 162 L 241 162 L 241 209 L 132.480469 209 Z M 132.480469 162 " clip-rule="nonzero"/></clipPath><clipPath id="54f3db62d8"><rect x="0" width="162" y="0" height="35"/></clipPath></defs><rect x="-37.5" width="450" fill="#ffffff" y="-37.499999" height="449.999989" fill-opacity="1"/><rect x="-37.5" width="450" fill="#ffffff" y="-37.499999" height="449.999989" fill-opacity="1"/><g clip-path="url(#78eb8c6981)"><path fill="#f04e56" d="M 213.214844 154.605469 C 214.574219 154.359375 216.042969 154.414062 217.425781 154.28125 C 220.324219 154.015625 223.191406 153.566406 226.085938 153.261719 C 230.015625 152.851562 233.957031 152.578125 237.898438 152.34375 C 238.859375 152.285156 239.820312 152.214844 240.777344 152.160156 C 241.019531 152.148438 241.621094 152.007812 241.851562 152.160156 C 242.738281 152.738281 242.316406 154.902344 242.152344 155.714844 C 241.46875 159.082031 240.070312 162.589844 237.332031 164.832031 C 236.066406 165.867188 234.449219 166.457031 232.886719 166.878906 C 227.582031 168.308594 220.804688 166.3125 217.023438 162.378906 C 215.132812 160.410156 214.101562 157.90625 213.363281 155.328125 " fill-opacity="1" fill-rule="evenodd"/></g><path fill="#f5dcbd" d="M 221.980469 157.132812 C 221.917969 157.550781 221.804688 157.949219 221.640625 158.335938 C 221.566406 158.515625 221.476562 158.6875 221.375 158.855469 C 221.152344 159.214844 220.308594 159.957031 220.445312 158.949219 C 220.523438 158.554688 220.707031 158.214844 220.988281 157.925781 C 221.273438 157.609375 221.578125 157.316406 221.90625 157.046875 Z M 236.117188 156.078125 C 236.304688 156.339844 236.515625 156.582031 236.75 156.804688 C 237.019531 157.054688 237.53125 157.4375 237.945312 157.441406 C 238.054688 157.441406 238.050781 157.191406 238.042969 157.136719 C 237.976562 156.855469 237.828125 156.625 237.601562 156.445312 C 237.222656 156.105469 236.742188 155.980469 236.269531 155.820312 Z M 225.589844 158.566406 C 225.628906 158.957031 225.628906 159.347656 225.589844 159.738281 C 225.5625 159.976562 225.511719 160.210938 225.429688 160.4375 C 225.34375 160.710938 224.824219 161.683594 224.605469 160.914062 C 224.570312 160.800781 224.558594 160.6875 224.5625 160.570312 C 224.601562 159.894531 224.835938 159.292969 225.269531 158.769531 Z M 232.695312 158.347656 C 232.804688 158.867188 233.007812 159.347656 233.300781 159.792969 C 233.386719 159.949219 233.492188 160.097656 233.613281 160.234375 C 233.832031 160.476562 234.382812 160.839844 234.277344 160.210938 C 234.183594 159.828125 234.007812 159.484375 233.746094 159.179688 C 233.515625 158.875 233.230469 158.625 232.976562 158.335938 Z M 229.148438 158.816406 C 229.4375 159.273438 229.644531 159.765625 229.765625 160.292969 C 229.820312 160.496094 229.847656 160.703125 229.851562 160.914062 C 229.851562 161.214844 229.566406 162.28125 229.132812 161.640625 C 228.890625 161.210938 228.804688 160.75 228.875 160.261719 C 228.90625 159.867188 229.011719 159.484375 229.085938 159.089844 Z M 229.148438 158.816406 " fill-opacity="1" fill-rule="evenodd"/><path fill="#f5dcbd" d="M 237.640625 146.664062 L 235.304688 144.175781 C 235.304688 144.175781 233.632812 152.792969 222.222656 156.585938 C 215.210938 160.078125 206.550781 154.007812 206.550781 154.007812 L 206.3125 157.269531 C 206.3125 157.269531 214.429688 162.148438 223.1875 158.878906 C 231.945312 155.605469 237.640625 146.664062 237.640625 146.664062 Z M 237.640625 146.664062 " fill-opacity="1" fill-rule="evenodd"/><g clip-path="url(#b7d2cd97b0)"><path fill="#a8ba31" d="M 173.3125 174.824219 C 170.859375 173.125 168.148438 174.789062 165.566406 175.355469 C 161.464844 176.25 156.832031 176.675781 153.09375 174.3125 C 150.914062 172.941406 149.886719 170.453125 147.734375 169.078125 C 145.550781 167.683594 142.566406 167.785156 140.230469 166.59375 C 136.78125 164.832031 133.789062 161.289062 132.925781 157.507812 C 132.484375 155.546875 132.511719 153.480469 133.871094 151.863281 C 134.9375 150.597656 136.601562 150.160156 138.203125 150.082031 C 139.191406 150.03125 140.226562 150.199219 141.175781 149.835938 C 143.722656 148.859375 145.609375 146.582031 148.433594 146.167969 C 152.265625 145.601562 156.566406 147.210938 158.523438 150.640625 C 160.011719 153.25 160.296875 156.234375 162.292969 158.609375 C 163.179688 159.65625 164.335938 160.65625 165.710938 160.945312 C 167.136719 161.242188 168.652344 161.046875 169.949219 161.824219 C 173.324219 163.847656 172.890625 167.597656 173.308594 170.898438 C 173.441406 171.929688 173.921875 173.355469 173.71875 174.398438 " fill-opacity="1" fill-rule="evenodd"/></g><path fill="#7d921c" d="M 173.078125 175.027344 C 172.316406 173.996094 171.355469 173.199219 170.195312 172.640625 C 167.707031 171.394531 163.683594 171.714844 161.019531 172.199219 C 159.0625 172.558594 157.570312 172.230469 155.605469 171.960938 C 154.960938 171.871094 154.335938 171.90625 155.023438 171.886719 C 156.957031 171.847656 158.867188 171.621094 160.753906 171.214844 C 161.320312 171.085938 161.886719 170.945312 162.460938 170.851562 C 162.660156 170.8125 162.859375 170.777344 163.058594 170.753906 C 163.144531 170.753906 163.328125 170.8125 163.316406 170.726562 C 163.257812 170.21875 161.707031 169.316406 161.332031 169 C 160.464844 168.257812 159.679688 167.144531 158.570312 166.734375 C 157.589844 166.375 156.449219 166.582031 155.429688 166.601562 C 154.25 166.621094 153.085938 166.476562 151.945312 166.175781 C 150.675781 165.847656 149.46875 165.253906 148.246094 164.777344 C 147.871094 164.632812 147.496094 164.480469 147.113281 164.339844 C 146.953125 164.28125 146.789062 164.226562 146.628906 164.179688 C 146.574219 164.164062 146.410156 164.113281 146.46875 164.136719 C 147.21875 164.527344 148.179688 164.542969 149 164.578125 C 150.425781 164.652344 151.84375 164.769531 153.265625 164.878906 C 154.078125 164.945312 154.875 165.136719 155.703125 165.148438 C 155.9375 165.148438 156.167969 165.148438 156.402344 165.160156 C 156.535156 165.160156 156.910156 165.257812 156.800781 165.179688 C 155.691406 164.375 154.238281 163.914062 152.996094 163.347656 C 150.085938 162.027344 147.066406 160.925781 144.183594 159.570312 C 142.625 158.882812 141.257812 157.921875 140.082031 156.695312 C 139.746094 156.34375 139.402344 156 139.035156 155.679688 C 138.898438 155.5625 138.761719 155.460938 138.617188 155.347656 C 138.554688 155.304688 138.359375 155.226562 138.433594 155.210938 C 138.703125 155.15625 139.222656 155.375 139.5 155.457031 C 140.386719 155.710938 141.261719 155.945312 142.132812 156.21875 C 145.625 157.320312 148.824219 159.117188 152.226562 160.460938 C 153.503906 160.925781 154.75 161.46875 155.960938 162.082031 C 156.339844 162.289062 156.71875 162.496094 157.097656 162.707031 L 157.488281 162.925781 C 157.570312 162.96875 157.746094 163.144531 157.734375 163.054688 C 157.613281 161.871094 156.574219 160.867188 155.917969 159.96875 C 155.03125 158.746094 154.3125 157.433594 153.761719 156.03125 C 153.429688 155.167969 153.320312 154.328125 153.167969 153.421875 C 153.117188 153.101562 153.046875 152.789062 152.960938 152.476562 C 152.914062 152.320312 152.660156 151.917969 152.78125 152.035156 C 153.144531 152.367188 153.421875 153.011719 153.695312 153.429688 C 154.65625 154.925781 155.335938 156.597656 156.308594 158.074219 C 157.558594 159.96875 159.601562 161.242188 161.101562 162.921875 C 161.789062 163.75 162.546875 164.511719 163.375 165.203125 C 163.5625 165.351562 163.75 165.5 163.941406 165.644531 C 164.027344 165.703125 164.164062 165.914062 164.199219 165.820312 C 164.574219 164.898438 163.734375 162.933594 163.414062 162.054688 C 163.308594 161.753906 163.183594 161.460938 163.039062 161.171875 C 162.957031 161.007812 162.59375 160.734375 162.777344 160.683594 C 162.964844 160.632812 163.121094 160.960938 163.28125 161.121094 C 163.742188 161.601562 164.167969 162.117188 164.546875 162.664062 C 166.085938 164.777344 167.339844 167.292969 169.292969 169.078125 C 170.125 169.839844 171.242188 170.21875 172.042969 171.011719 C 173.457031 172.417969 173.351562 172.710938 174.980469 173.933594 C 175.625 174.417969 174.160156 176.515625 173.078125 175.027344 Z M 173.078125 175.027344 " fill-opacity="1" fill-rule="evenodd"/><path fill="#f5dcbd" d="M 167.15625 166.875 L 169.238281 164.15625 C 169.238281 164.15625 160.410156 163.988281 154.703125 153.464844 C 150.050781 147.195312 154.582031 137.675781 154.582031 137.675781 L 151.300781 138.007812 C 151.300781 138.007812 147.847656 146.78125 152.585938 154.804688 C 157.328125 162.824219 167.15625 166.875 167.15625 166.875 Z M 167.15625 166.875 " fill-opacity="1" fill-rule="evenodd"/><path fill="#f04e56" d="M 159.054688 137.144531 C 160.078125 138.0625 160.933594 139.257812 161.871094 140.261719 C 163.847656 142.382812 165.957031 144.371094 167.957031 146.464844 C 170.679688 149.316406 173.296875 152.253906 175.886719 155.21875 C 176.519531 155.941406 177.164062 156.65625 177.789062 157.382812 C 177.949219 157.5625 178.425781 157.953125 178.457031 158.226562 C 178.53125 159.277344 176.550781 160.261719 175.796875 160.628906 C 172.691406 162.140625 169.042969 163.175781 165.585938 162.390625 C 163.988281 162.023438 162.53125 161.109375 161.246094 160.132812 C 156.875 156.824219 154.335938 150.261719 155.175781 144.886719 C 155.59375 142.199219 156.960938 139.855469 158.566406 137.710938 " fill-opacity="1" fill-rule="evenodd"/><path fill="#f5dcbd" d="M 162.363281 145.59375 C 161.996094 145.800781 161.609375 145.953125 161.199219 146.058594 C 161.011719 146.109375 160.820312 146.144531 160.625 146.167969 C 160.207031 146.214844 159.097656 145.996094 159.984375 145.492188 C 160.347656 145.3125 160.726562 145.246094 161.128906 145.296875 C 161.550781 145.332031 161.96875 145.394531 162.382812 145.488281 Z M 171.820312 156.09375 C 171.726562 156.402344 171.660156 156.714844 171.628906 157.035156 C 171.589844 157.402344 171.597656 158.039062 171.847656 158.355469 C 171.917969 158.445312 172.113281 158.292969 172.152344 158.25 C 172.335938 158.03125 172.433594 157.773438 172.441406 157.488281 C 172.480469 156.980469 172.289062 156.527344 172.128906 156.0625 Z M 163.433594 149.308594 C 163.144531 149.578125 162.835938 149.816406 162.5 150.019531 C 162.292969 150.152344 162.070312 150.25 161.835938 150.324219 C 161.5625 150.421875 160.472656 150.605469 160.949219 149.964844 C 161.019531 149.867188 161.101562 149.789062 161.199219 149.722656 C 161.761719 149.339844 162.382812 149.15625 163.0625 149.179688 Z M 167.929688 154.78125 C 167.582031 155.1875 167.320312 155.640625 167.144531 156.140625 C 167.074219 156.304688 167.019531 156.476562 166.984375 156.652344 C 166.929688 156.976562 166.96875 157.628906 167.410156 157.167969 C 167.664062 156.863281 167.828125 156.515625 167.910156 156.125 C 168.011719 155.753906 168.042969 155.378906 168.117188 155 Z M 165.398438 152.269531 C 165.203125 152.777344 164.933594 153.238281 164.582031 153.652344 C 164.453125 153.816406 164.304688 153.964844 164.136719 154.09375 C 163.898438 154.277344 162.875 154.703125 163.117188 153.96875 C 163.3125 153.511719 163.628906 153.160156 164.0625 152.914062 C 164.398438 152.695312 164.773438 152.546875 165.128906 152.367188 Z M 165.398438 152.269531 " fill-opacity="1" fill-rule="evenodd"/><path fill="#a8ba31" d="M 206.886719 163.199219 C 204.300781 161.710938 201.734375 163.589844 199.210938 164.367188 C 195.203125 165.597656 190.617188 166.394531 186.695312 164.367188 C 184.40625 163.179688 183.175781 160.785156 180.929688 159.59375 C 178.636719 158.382812 175.671875 158.730469 173.246094 157.734375 C 169.660156 156.269531 166.375 152.984375 165.210938 149.289062 C 164.601562 147.371094 164.460938 145.304688 165.679688 143.582031 C 166.632812 142.230469 168.253906 141.660156 169.847656 141.445312 C 170.828125 141.320312 171.875 141.402344 172.785156 140.960938 C 175.234375 139.769531 176.933594 137.347656 179.703125 136.699219 C 183.472656 135.816406 187.894531 137.0625 190.125 140.324219 C 191.824219 142.800781 192.363281 145.75 194.558594 147.953125 C 195.519531 148.917969 196.761719 149.824219 198.15625 149.996094 C 199.601562 150.175781 201.097656 149.851562 202.457031 150.519531 C 205.984375 152.253906 205.867188 156.03125 206.5625 159.285156 C 206.785156 160.304688 207.375 161.683594 207.261719 162.738281 " fill-opacity="1" fill-rule="evenodd"/><path fill="#7d921c" d="M 206.667969 163.417969 C 205.824219 162.449219 204.800781 161.738281 203.601562 161.277344 C 201.015625 160.238281 197.035156 160.890625 194.421875 161.59375 C 192.5 162.109375 190.984375 161.90625 189.003906 161.8125 C 188.355469 161.777344 187.734375 161.859375 188.417969 161.785156 C 190.339844 161.585938 192.226562 161.203125 194.074219 160.640625 C 194.625 160.46875 195.183594 160.28125 195.742188 160.136719 C 195.9375 160.085938 196.132812 160.03125 196.332031 159.992188 C 196.417969 159.976562 196.605469 160.03125 196.589844 159.945312 C 196.484375 159.445312 194.867188 158.675781 194.464844 158.386719 C 193.539062 157.726562 192.660156 156.679688 191.523438 156.359375 C 190.515625 156.078125 189.394531 156.382812 188.382812 156.488281 C 187.210938 156.601562 186.046875 156.558594 184.890625 156.355469 C 183.597656 156.132812 182.339844 155.640625 181.085938 155.269531 C 180.695312 155.152344 180.3125 155.03125 179.917969 154.925781 C 179.753906 154.882812 179.589844 154.84375 179.425781 154.808594 C 179.367188 154.808594 179.203125 154.757812 179.261719 154.777344 C 180.039062 155.105469 181 155.039062 181.820312 155.019531 C 183.242188 154.976562 184.667969 154.972656 186.09375 154.96875 C 186.910156 154.96875 187.71875 155.089844 188.535156 155.03125 C 188.765625 155.015625 188.996094 154.996094 189.230469 154.988281 C 189.363281 154.988281 189.746094 155.042969 189.632812 154.976562 C 188.453125 154.261719 186.972656 153.925781 185.683594 153.464844 C 182.675781 152.375 179.582031 151.523438 176.59375 150.414062 C 174.984375 149.855469 173.542969 149.015625 172.273438 147.886719 C 171.90625 147.566406 171.535156 147.25 171.144531 146.960938 C 171 146.855469 170.851562 146.757812 170.699219 146.664062 C 170.636719 146.625 170.433594 146.566406 170.507812 146.546875 C 170.773438 146.46875 171.308594 146.640625 171.589844 146.699219 C 172.476562 146.882812 173.386719 147.042969 174.277344 147.246094 C 177.851562 148.054688 181.1875 149.578125 184.699219 150.636719 C 186 150.992188 187.273438 151.425781 188.523438 151.9375 C 188.921875 152.109375 189.316406 152.285156 189.707031 152.460938 L 190.113281 152.644531 C 190.199219 152.679688 190.390625 152.839844 190.375 152.75 C 190.15625 151.582031 189.046875 150.667969 188.304688 149.816406 C 187.320312 148.675781 186.496094 147.433594 185.828125 146.085938 C 185.421875 145.253906 185.242188 144.425781 185.019531 143.535156 C 184.9375 143.21875 184.84375 142.910156 184.730469 142.609375 C 184.675781 142.457031 184.386719 142.078125 184.511719 142.167969 C 184.902344 142.464844 185.234375 143.085938 185.535156 143.488281 C 186.621094 144.902344 187.4375 146.511719 188.53125 147.898438 C 189.933594 149.683594 192.078125 150.785156 193.710938 152.339844 C 194.46875 153.109375 195.289062 153.804688 196.167969 154.429688 C 196.367188 154.558594 196.566406 154.695312 196.773438 154.820312 C 196.859375 154.871094 197.011719 155.070312 197.042969 154.96875 C 197.339844 154.019531 196.335938 152.132812 195.949219 151.285156 C 195.816406 150.992188 195.667969 150.710938 195.503906 150.4375 C 195.410156 150.277344 195.035156 150.046875 195.203125 149.96875 C 195.375 149.894531 195.570312 150.21875 195.742188 150.359375 C 196.246094 150.804688 196.707031 151.285156 197.132812 151.804688 C 198.84375 153.785156 200.304688 156.1875 202.398438 157.800781 C 203.285156 158.492188 204.4375 158.777344 205.296875 159.503906 C 206.824219 160.785156 206.742188 161.082031 208.472656 162.167969 C 209.15625 162.601562 207.871094 164.8125 206.667969 163.417969 Z M 206.667969 163.417969 " fill-opacity="1" fill-rule="evenodd"/><path fill="#f04e56" d="M 215.222656 150.398438 C 213.988281 151.007812 212.5625 151.355469 211.269531 151.855469 C 208.5625 152.902344 205.925781 154.121094 203.230469 155.195312 C 199.5625 156.664062 195.851562 158.003906 192.125 159.304688 C 191.214844 159.625 190.3125 159.964844 189.402344 160.269531 C 189.179688 160.347656 188.636719 160.648438 188.371094 160.566406 C 187.359375 160.25 187.167969 158.054688 187.101562 157.230469 C 186.824219 153.804688 187.199219 150.050781 189.214844 147.144531 C 190.144531 145.804688 191.539062 144.796875 192.921875 143.964844 C 197.625 141.144531 204.695312 141.207031 209.417969 143.964844 C 211.777344 145.339844 213.464844 147.464844 214.886719 149.734375 " fill-opacity="1" fill-rule="evenodd"/><path fill="#f5dcbd" d="M 205.878906 150.359375 C 205.824219 149.945312 205.824219 149.527344 205.878906 149.113281 C 205.898438 148.917969 205.9375 148.726562 205.988281 148.539062 C 206.097656 148.136719 206.710938 147.191406 206.855469 148.195312 C 206.890625 148.597656 206.808594 148.976562 206.613281 149.328125 C 206.429688 149.707031 206.214844 150.070312 205.976562 150.414062 Z M 192.574219 155.242188 C 192.324219 155.039062 192.054688 154.863281 191.769531 154.714844 C 191.4375 154.546875 190.839844 154.316406 190.4375 154.429688 C 190.332031 154.460938 190.402344 154.699219 190.4375 154.75 C 190.578125 155 190.78125 155.183594 191.046875 155.296875 C 191.503906 155.515625 192 155.515625 192.496094 155.535156 Z M 202.011719 149.972656 C 201.867188 149.609375 201.757812 149.234375 201.6875 148.847656 C 201.644531 148.609375 201.632812 148.371094 201.644531 148.128906 C 201.65625 147.84375 201.882812 146.769531 202.308594 147.449219 C 202.371094 147.546875 202.414062 147.652344 202.441406 147.765625 C 202.59375 148.425781 202.539062 149.066406 202.269531 149.6875 Z M 195.234375 152.109375 C 194.988281 151.640625 194.660156 151.230469 194.257812 150.882812 C 194.128906 150.765625 193.992188 150.660156 193.84375 150.566406 C 193.5625 150.398438 192.9375 150.191406 193.207031 150.769531 C 193.402344 151.117188 193.664062 151.398438 194 151.617188 C 194.3125 151.839844 194.652344 152.011719 194.976562 152.21875 Z M 198.519531 150.691406 C 198.113281 150.328125 197.78125 149.910156 197.515625 149.4375 C 197.410156 149.257812 197.324219 149.066406 197.261719 148.863281 C 197.183594 148.578125 197.15625 147.472656 197.757812 147.96875 C 198.113281 148.324219 198.328125 148.75 198.394531 149.246094 C 198.472656 149.636719 198.476562 150.035156 198.515625 150.429688 Z M 198.519531 150.691406 " fill-opacity="1" fill-rule="evenodd"/><path fill="#a8ba31" d="M 179.300781 161.917969 C 182.125 162.882812 184.273438 160.542969 186.601562 159.292969 C 190.292969 157.308594 194.636719 155.640625 198.878906 156.886719 C 201.355469 157.609375 203.03125 159.722656 205.476562 160.457031 C 207.957031 161.199219 210.796875 160.289062 213.375 160.792969 C 217.179688 161.542969 221.035156 164.136719 222.90625 167.535156 C 223.878906 169.296875 224.417969 171.292969 223.574219 173.222656 C 222.90625 174.730469 221.421875 175.605469 219.898438 176.117188 C 218.964844 176.4375 217.917969 176.558594 217.113281 177.164062 C 214.933594 178.800781 213.734375 181.507812 211.148438 182.671875 C 207.617188 184.261719 203.039062 183.894531 200.207031 181.128906 C 198.054688 179.03125 196.949219 176.242188 194.375 174.5 C 193.242188 173.738281 191.84375 173.089844 190.441406 173.191406 C 188.988281 173.292969 187.585938 173.898438 186.121094 173.503906 C 182.320312 172.484375 181.6875 168.757812 180.382812 165.699219 C 179.972656 164.742188 179.117188 163.492188 179.023438 162.445312 " fill-opacity="1" fill-rule="evenodd"/><path fill="#7d921c" d="M 179.46875 161.664062 C 180.488281 162.449219 181.632812 162.949219 182.90625 163.167969 C 185.644531 163.6875 189.421875 162.285156 191.847656 161.085938 C 193.632812 160.207031 195.15625 160.117188 197.121094 159.839844 C 197.761719 159.75 198.355469 159.546875 197.699219 159.753906 C 195.855469 160.316406 194.082031 161.050781 192.378906 161.957031 C 191.871094 162.230469 191.363281 162.523438 190.839844 162.769531 C 190.65625 162.859375 190.476562 162.953125 190.289062 163.027344 C 190.210938 163.058594 190.015625 163.042969 190.046875 163.121094 C 190.25 163.59375 191.988281 164.039062 192.433594 164.242188 C 193.476562 164.71875 194.539062 165.566406 195.714844 165.664062 C 196.757812 165.746094 197.796875 165.222656 198.773438 164.933594 C 199.898438 164.59375 201.050781 164.414062 202.226562 164.390625 C 203.539062 164.359375 204.863281 164.601562 206.167969 164.722656 C 206.574219 164.761719 206.976562 164.808594 207.382812 164.832031 C 207.550781 164.84375 207.722656 164.851562 207.886719 164.855469 C 207.945312 164.855469 208.109375 164.855469 208.054688 164.855469 C 207.226562 164.683594 206.296875 164.929688 205.496094 165.113281 C 204.109375 165.425781 202.710938 165.707031 201.316406 165.992188 C 200.515625 166.152344 199.695312 166.1875 198.90625 166.402344 C 198.683594 166.460938 198.464844 166.527344 198.230469 166.578125 C 198.101562 166.609375 197.714844 166.625 197.839844 166.667969 C 199.132812 167.140625 200.65625 167.183594 202.007812 167.390625 C 205.171875 167.878906 208.375 168.121094 211.53125 168.625 C 213.21875 168.863281 214.796875 169.414062 216.261719 170.273438 C 216.683594 170.515625 217.109375 170.753906 217.550781 170.960938 C 217.714844 171.035156 217.878906 171.109375 218.046875 171.167969 C 218.117188 171.195312 218.324219 171.210938 218.269531 171.246094 C 218.023438 171.371094 217.464844 171.308594 217.175781 171.304688 C 216.257812 171.304688 215.347656 171.304688 214.433594 171.289062 C 210.769531 171.183594 207.199219 170.328125 203.554688 169.964844 C 202.195312 169.867188 200.851562 169.683594 199.515625 169.425781 C 199.09375 169.332031 198.671875 169.238281 198.253906 169.140625 L 197.808594 169.039062 C 197.71875 169.015625 197.5 168.894531 197.535156 168.984375 C 197.976562 170.085938 199.253906 170.769531 200.140625 171.460938 C 201.324219 172.390625 202.378906 173.449219 203.296875 174.640625 C 203.855469 175.382812 204.195312 176.164062 204.589844 176.992188 C 204.726562 177.285156 204.878906 177.566406 205.050781 177.84375 C 205.136719 177.980469 205.492188 178.296875 205.347656 178.226562 C 204.902344 178.007812 204.460938 177.464844 204.082031 177.136719 C 202.753906 175.960938 201.628906 174.539062 200.285156 173.390625 C 198.558594 171.910156 196.246094 171.242188 194.335938 170.027344 C 193.441406 169.417969 192.503906 168.894531 191.519531 168.453125 C 191.296875 168.363281 191.074219 168.269531 190.851562 168.191406 C 190.753906 168.15625 190.570312 167.988281 190.558594 168.089844 C 190.453125 169.082031 191.804688 170.734375 192.351562 171.496094 C 192.539062 171.753906 192.738281 172.003906 192.957031 172.238281 C 193.082031 172.375 193.496094 172.535156 193.34375 172.640625 C 193.1875 172.742188 192.933594 172.46875 192.742188 172.363281 C 192.160156 172.023438 191.613281 171.640625 191.09375 171.214844 C 189.03125 169.601562 187.125 167.523438 184.757812 166.34375 C 183.746094 165.839844 182.566406 165.78125 181.578125 165.242188 C 179.832031 164.28125 179.855469 163.972656 177.945312 163.238281 C 177.1875 162.941406 178.015625 160.523438 179.46875 161.664062 Z M 179.46875 161.664062 " fill-opacity="1" fill-rule="evenodd"/><path fill="#f04e56" d="M 187.8125 156.933594 C 187.957031 159.605469 187.796875 162.304688 186.65625 164.777344 C 184.367188 169.722656 178.609375 173.800781 173.132812 174.167969 C 171.519531 174.273438 169.792969 174.238281 168.253906 173.667969 C 164.929688 172.433594 162.460938 169.570312 160.71875 166.617188 C 160.296875 165.898438 159.191406 163.992188 159.832031 163.160156 C 160 162.9375 160.613281 162.878906 160.847656 162.816406 C 161.773438 162.550781 162.703125 162.3125 163.632812 162.054688 C 167.4375 160.996094 171.253906 159.984375 175.101562 159.101562 C 177.9375 158.441406 180.796875 157.949219 183.625 157.265625 C 184.964844 156.941406 186.339844 156.414062 187.703125 156.207031 " fill-opacity="1" fill-rule="evenodd"/><path fill="#f5dcbd" d="M 180.25 161.425781 C 180.441406 161.800781 180.679688 162.144531 180.960938 162.453125 C 181.09375 162.601562 181.234375 162.734375 181.382812 162.859375 C 181.707031 163.128906 182.753906 163.554688 182.296875 162.640625 C 182.09375 162.289062 181.808594 162.027344 181.445312 161.851562 C 181.074219 161.644531 180.691406 161.46875 180.292969 161.320312 Z M 166.535156 165 C 166.441406 165.304688 166.324219 165.597656 166.175781 165.878906 C 166 166.207031 165.644531 166.734375 165.253906 166.867188 C 165.148438 166.90625 165.070312 166.667969 165.058594 166.613281 C 165.027344 166.328125 165.089844 166.0625 165.242188 165.820312 C 165.492188 165.378906 165.90625 165.101562 166.292969 164.796875 Z M 177.304688 163.945312 C 177.394531 164.324219 177.523438 164.691406 177.6875 165.046875 C 177.789062 165.265625 177.914062 165.46875 178.066406 165.660156 C 178.238281 165.878906 179.046875 166.636719 179.003906 165.839844 C 178.996094 165.722656 178.972656 165.613281 178.925781 165.503906 C 178.671875 164.875 178.253906 164.382812 177.671875 164.03125 Z M 170.515625 166.042969 C 170.582031 166.570312 170.550781 167.089844 170.417969 167.605469 C 170.382812 167.78125 170.332031 167.953125 170.265625 168.121094 C 170.128906 168.421875 169.734375 168.945312 169.625 168.320312 C 169.582031 167.925781 169.636719 167.542969 169.785156 167.175781 C 169.910156 166.808594 170.09375 166.476562 170.242188 166.125 Z M 174.023438 165.339844 C 173.898438 165.867188 173.867188 166.398438 173.925781 166.9375 C 173.941406 167.144531 173.980469 167.347656 174.046875 167.546875 C 174.144531 167.832031 174.761719 168.75 174.964844 168.003906 C 175.054688 167.515625 174.988281 167.050781 174.765625 166.609375 C 174.601562 166.242188 174.375 165.914062 174.179688 165.566406 Z M 174.023438 165.339844 " fill-opacity="1" fill-rule="evenodd"/><g clip-path="url(#c7f66d34d2)"><path fill="#a8ba31" d="M 195.933594 165.066406 C 195.589844 164.0625 195.863281 162.585938 195.847656 161.542969 C 195.796875 158.210938 194.839844 154.558594 197.894531 152.089844 C 199.070312 151.136719 200.601562 151.125 201.972656 150.628906 C 203.300781 150.152344 204.304688 149 205.023438 147.839844 C 206.667969 145.210938 206.535156 142.21875 207.640625 139.429688 C 209.097656 135.765625 213.132812 133.574219 217.003906 133.601562 C 219.847656 133.621094 222.046875 135.605469 224.707031 136.222656 C 225.695312 136.441406 226.703125 136.140625 227.683594 136.050781 C 229.28125 135.90625 230.992188 136.105469 232.222656 137.214844 C 233.796875 138.625 234.121094 140.667969 233.953125 142.671875 C 233.632812 146.535156 231.171875 150.460938 228 152.683594 C 225.855469 154.1875 222.886719 154.5 220.921875 156.1875 C 218.960938 157.871094 218.320312 160.453125 216.359375 162.113281 C 212.988281 164.964844 208.339844 165.199219 204.15625 164.878906 C 201.519531 164.679688 198.597656 163.410156 196.410156 165.429688 " fill-opacity="1" fill-rule="evenodd"/></g><path fill="#7d921c" d="M 194.632812 164.785156 C 196.074219 163.34375 195.929688 163.070312 197.132812 161.480469 C 197.8125 160.582031 198.863281 160.050781 199.582031 159.179688 C 201.261719 157.144531 202.152344 154.480469 203.378906 152.171875 C 203.675781 151.574219 204.023438 151 204.414062 150.457031 C 204.546875 150.285156 204.636719 149.917969 204.855469 149.960938 C 205.042969 149.996094 204.730469 150.304688 204.667969 150.480469 C 204.570312 150.785156 204.484375 151.09375 204.417969 151.40625 C 204.230469 152.320312 203.671875 154.382812 204.175781 155.242188 C 204.226562 155.332031 204.328125 155.105469 204.394531 155.019531 C 204.570312 154.859375 204.734375 154.683594 204.898438 154.511719 C 205.621094 153.707031 206.261719 152.851562 206.828125 151.933594 C 208.078125 150.050781 209.917969 148.507812 210.886719 146.457031 C 211.644531 144.859375 212.082031 143.109375 212.824219 141.496094 C 213.035156 141.054688 213.21875 140.363281 213.53125 139.988281 C 213.636719 139.863281 213.4375 140.296875 213.417969 140.457031 C 213.375 140.777344 213.351562 141.097656 213.347656 141.421875 C 213.324219 142.339844 213.332031 143.183594 213.125 144.089844 C 212.773438 145.554688 212.246094 146.949219 211.542969 148.277344 C 211.019531 149.273438 210.132812 150.410156 210.179688 151.597656 C 210.179688 151.691406 210.332031 151.492188 210.398438 151.4375 L 210.757812 151.167969 C 211.101562 150.910156 211.445312 150.648438 211.792969 150.394531 C 212.90625 149.617188 214.0625 148.910156 215.261719 148.265625 C 218.453125 146.472656 221.359375 144.25 224.660156 142.675781 C 225.484375 142.28125 226.328125 141.925781 227.160156 141.546875 C 227.421875 141.429688 227.90625 141.144531 228.183594 141.164062 C 228.257812 141.164062 228.074219 141.269531 228.019531 141.320312 C 227.890625 141.445312 227.769531 141.574219 227.652344 141.710938 C 227.335938 142.074219 227.042969 142.464844 226.765625 142.859375 C 225.773438 144.238281 224.554688 145.378906 223.109375 146.273438 C 220.433594 148.015625 217.605469 149.53125 214.90625 151.253906 C 213.757812 151.988281 212.382812 152.644531 211.398438 153.597656 C 211.300781 153.691406 211.65625 153.546875 211.789062 153.523438 C 212.007812 153.480469 212.25 153.449219 212.480469 153.414062 C 213.285156 153.289062 214.050781 152.988281 214.84375 152.8125 C 216.234375 152.503906 217.628906 152.191406 219.027344 151.917969 C 219.832031 151.757812 220.78125 151.613281 221.464844 151.121094 C 221.511719 151.089844 221.363281 151.164062 221.3125 151.1875 C 221.160156 151.253906 221.003906 151.328125 220.855469 151.40625 C 220.5 151.59375 220.148438 151.800781 219.792969 151.996094 C 218.652344 152.636719 217.539062 153.394531 216.332031 153.894531 C 215.246094 154.347656 214.121094 154.648438 212.953125 154.792969 C 211.9375 154.917969 210.777344 154.867188 209.859375 155.363281 C 208.820312 155.925781 208.199219 157.125 207.441406 157.988281 C 207.117188 158.355469 205.710938 159.460938 205.722656 159.972656 C 205.722656 160.0625 205.894531 159.972656 205.980469 159.972656 C 206.183594 159.972656 206.386719 159.972656 206.589844 159.972656 C 207.167969 159.988281 207.75 160.050781 208.328125 160.09375 C 210.253906 160.238281 212.175781 160.195312 214.09375 159.964844 C 214.777344 159.890625 214.152344 159.941406 213.527344 160.121094 C 211.621094 160.660156 210.1875 161.191406 208.207031 161.113281 C 205.5 161.003906 201.472656 161.242188 199.183594 162.828125 C 198.113281 163.539062 197.269531 164.460938 196.660156 165.589844 C 195.808594 167.226562 194.066406 165.351562 194.632812 164.785156 Z M 194.632812 164.785156 " fill-opacity="1" fill-rule="evenodd"/><path fill="#f5dcbd" d="M 192.902344 167.039062 L 194.207031 170.179688 C 194.207031 170.179688 198.816406 162.6875 210.835938 163.128906 C 218.632812 162.3125 224.597656 171.015625 224.597656 171.015625 L 225.96875 168.050781 C 225.96875 168.050781 220.101562 160.644531 210.742188 160.644531 C 201.386719 160.644531 192.902344 167.039062 192.902344 167.039062 Z M 192.902344 167.039062 " fill-opacity="1" fill-rule="evenodd"/><path fill="#f5dcbd" d="M 183.140625 162.320312 C 174.378906 165.59375 166.265625 160.703125 166.265625 160.703125 L 166.5 157.449219 C 166.5 157.449219 175.164062 163.515625 182.175781 160.023438 C 193.582031 156.230469 195.253906 147.613281 195.253906 147.613281 L 197.589844 150.101562 C 197.589844 150.101562 191.902344 159.050781 183.140625 162.320312 Z M 183.140625 162.320312 " fill-opacity="1" fill-rule="evenodd"/><g clip-path="url(#4ff8f7375e)"><path fill="#ff9175" d="M 201.546875 203.171875 L 199.992188 207.074219 C 186.835938 209.9375 172.886719 206.503906 172.886719 206.503906 L 171.726562 203.28125 C 151.378906 198.800781 136.03125 185.234375 133.648438 168.683594 C 133.300781 168.476562 132.96875 168.269531 132.664062 168.058594 L 133.523438 162.988281 C 133.523438 162.988281 184.625 180.097656 239.902344 162.574219 L 240.945312 168.015625 C 240.328125 168.515625 239.683594 168.976562 239.011719 169.398438 C 236.320312 185.484375 221.347656 198.644531 201.546875 203.171875 Z M 201.546875 203.171875 " fill-opacity="1" fill-rule="evenodd"/></g><path fill="#f5dcbd" d="M 166.253906 178.050781 C 165.28125 177.929688 164.3125 177.785156 163.34375 177.652344 C 162.375 177.519531 161.414062 177.347656 160.445312 177.195312 L 159 176.949219 L 157.554688 176.671875 C 153.707031 175.9375 149.859375 175.027344 145.96875 173.953125 C 145.675781 173.871094 144.953125 173.679688 144.21875 173.464844 C 143.484375 173.246094 142.730469 173.023438 142.382812 172.910156 C 140.21875 172.199219 138.097656 171.40625 135.953125 170.527344 C 134.402344 169.878906 133.757812 169.480469 133.53125 169.277344 C 133.304688 169.074219 133.492188 169.058594 133.585938 169.074219 C 133.886719 169.132812 134.214844 169.195312 134.523438 169.242188 C 135.464844 169.441406 136.386719 169.710938 137.285156 170.050781 C 139.28125 170.863281 141.324219 171.59375 143.390625 172.253906 C 144.429688 172.574219 145.46875 172.914062 146.519531 173.191406 C 147.039062 173.335938 147.5625 173.496094 148.089844 173.632812 L 149.671875 174.042969 C 153.882812 175.121094 158.164062 175.960938 162.402344 176.609375 C 163.351562 176.75 164.429688 176.894531 165.589844 177.058594 C 166.171875 177.148438 166.773438 177.203125 167.390625 177.28125 L 169.28125 177.5 C 169.921875 177.582031 170.574219 177.625 171.226562 177.683594 L 173.195312 177.855469 C 173.863281 177.921875 174.507812 177.941406 175.15625 177.984375 L 177.0625 178.097656 C 182.054688 178.34375 186.152344 178.257812 186.394531 178.273438 C 188.816406 178.179688 191.117188 178.167969 193.398438 178.035156 C 195.679688 177.964844 197.9375 177.765625 200.289062 177.566406 C 201.503906 177.441406 202.730469 177.28125 203.945312 177.136719 C 204.558594 177.058594 205.175781 176.992188 205.789062 176.90625 L 207.632812 176.617188 L 209.484375 176.324219 C 210.101562 176.21875 210.722656 176.136719 211.335938 176.007812 L 215.042969 175.28125 C 216.121094 175.082031 217.179688 174.816406 218.246094 174.566406 L 221.4375 173.816406 L 224.609375 172.976562 L 226.203125 172.558594 C 226.734375 172.417969 227.269531 172.285156 227.796875 172.117188 C 229.4375 171.636719 231.078125 171.171875 232.691406 170.75 C 234.292969 170.289062 235.863281 169.839844 237.378906 169.464844 C 237.804688 169.347656 238.230469 169.257812 238.664062 169.191406 C 239.410156 169.105469 238.554688 169.519531 237.933594 169.832031 C 236.890625 170.332031 235.820312 170.769531 234.722656 171.140625 C 234.113281 171.359375 233.492188 171.582031 232.867188 171.769531 C 232.246094 171.960938 231.640625 172.140625 231.078125 172.296875 L 227.726562 173.234375 C 226.597656 173.535156 225.457031 173.808594 224.3125 174.101562 L 222.59375 174.539062 C 222.304688 174.613281 222.019531 174.691406 221.730469 174.761719 L 220.859375 174.949219 L 217.371094 175.71875 C 216.25 175.992188 215.105469 176.1875 213.96875 176.417969 C 212.832031 176.648438 211.691406 176.875 210.546875 177.078125 L 207.125 177.632812 C 206.558594 177.71875 205.996094 177.824219 205.425781 177.890625 L 203.734375 178.109375 L 201.949219 178.332031 C 201.355469 178.402344 200.769531 178.488281 200.203125 178.527344 L 198.371094 178.675781 L 196.949219 178.773438 C 196.425781 178.8125 195.855469 178.875 195.238281 178.898438 L 191.152344 179.117188 L 186.480469 179.226562 C 184.863281 179.207031 183.207031 179.214844 181.578125 179.179688 L 179.160156 179.09375 L 177.980469 179.054688 C 177.589844 179.039062 177.203125 179.007812 176.824219 178.988281 C 173.78125 178.824219 171.078125 178.574219 169.191406 178.394531 Z M 181.902344 204.933594 C 182.960938 204.980469 184.925781 205.113281 186.730469 205.15625 C 188.535156 205.199219 190.179688 205.171875 190.574219 205.175781 C 190.894531 205.175781 191.242188 205.140625 191.570312 205.113281 C 192.199219 205.0625 192.839844 204.996094 193.488281 204.929688 C 194.136719 204.863281 194.777344 204.738281 195.414062 204.648438 C 195.746094 204.605469 196.082031 204.574219 196.40625 204.523438 L 197.386719 204.363281 L 198.363281 204.214844 C 198.6875 204.167969 199.007812 204.125 199.324219 204.058594 C 199.675781 203.984375 200.023438 203.890625 200.363281 203.777344 C 200.691406 203.683594 200.988281 203.527344 201.25 203.3125 C 201.414062 203.167969 201.636719 202.988281 201.402344 202.886719 C 201.277344 202.847656 201.148438 202.828125 201.015625 202.832031 C 200.5625 202.828125 200.109375 202.855469 199.660156 202.917969 C 199.203125 202.980469 198.746094 203.085938 198.277344 203.15625 C 197.679688 203.265625 197.085938 203.386719 196.503906 203.519531 C 196.207031 203.589844 195.910156 203.640625 195.617188 203.691406 L 194.730469 203.839844 L 193.695312 204 C 193.347656 204.050781 193.003906 204.070312 192.660156 204.105469 C 191.96875 204.160156 191.285156 204.230469 190.609375 204.25 C 189.933594 204.269531 189.324219 204.25 188.691406 204.238281 C 188.058594 204.226562 187.417969 204.1875 186.746094 204.214844 L 185.945312 204.214844 L 184.152344 204.160156 C 182.765625 204.109375 181.128906 204.007812 180.066406 203.921875 C 177.691406 203.742188 175.226562 203.601562 172.859375 203.222656 C 172.550781 203.210938 172.265625 203.285156 172.003906 203.441406 L 171.699219 203.644531 C 171.632812 203.6875 171.449219 203.996094 172.394531 204.105469 C 173.042969 204.179688 173.667969 204.28125 174.296875 204.363281 C 174.503906 204.390625 175.183594 204.40625 175.34375 204.417969 C 177.570312 204.59375 179.707031 204.84375 181.902344 204.941406 Z M 181.902344 204.933594 " fill-opacity="1" fill-rule="nonzero"/><path fill="#f5dcbd" d="M 227.398438 183.933594 C 228.464844 183.636719 229.488281 184.789062 230.574219 186.007812 L 230.859375 186.328125 C 231.09375 186.050781 231.328125 185.761719 231.570312 185.464844 L 231.40625 185.277344 C 230.203125 183.921875 228.835938 182.386719 227.101562 182.871094 C 225.363281 183.359375 224.972656 185.355469 224.636719 187.128906 C 224.320312 188.804688 224.019531 190.382812 222.832031 190.667969 C 221.640625 190.953125 220.65625 189.652344 219.628906 188.292969 C 218.535156 186.847656 217.300781 185.207031 215.539062 185.5625 C 213.777344 185.914062 213.234375 187.871094 212.765625 189.617188 C 212.320312 191.257812 211.90625 192.8125 210.703125 193.003906 C 209.5 193.195312 208.625 191.824219 207.707031 190.390625 C 206.730469 188.867188 205.621094 187.140625 203.847656 187.351562 C 202.074219 187.5625 201.378906 189.480469 200.777344 191.183594 C 200.210938 192.789062 199.667969 194.304688 198.46875 194.402344 C 197.269531 194.503906 196.492188 193.070312 195.6875 191.570312 C 194.851562 190.011719 193.914062 188.246094 192.1875 188.246094 L 192.070312 188.246094 C 190.277344 188.304688 189.449219 190.179688 188.71875 191.835938 C 188.035156 193.390625 187.390625 194.863281 186.175781 194.867188 C 184.960938 194.875 184.308594 193.390625 183.621094 191.835938 C 182.890625 190.179688 182.070312 188.308594 180.277344 188.246094 C 178.480469 188.183594 177.511719 189.976562 176.660156 191.566406 C 175.855469 193.070312 175.089844 194.484375 173.882812 194.402344 C 172.679688 194.316406 172.136719 192.785156 171.570312 191.183594 C 170.964844 189.476562 170.285156 187.542969 168.503906 187.351562 C 166.726562 187.15625 165.625 188.863281 164.640625 190.386719 C 163.722656 191.820312 162.851562 193.179688 161.648438 193 C 160.445312 192.820312 160.023438 191.257812 159.582031 189.613281 C 159.109375 187.867188 158.578125 185.886719 156.816406 185.558594 C 155.054688 185.230469 153.8125 186.84375 152.71875 188.289062 C 151.6875 189.648438 150.722656 190.933594 149.523438 190.667969 C 148.324219 190.398438 148.027344 188.800781 147.710938 187.128906 C 147.375 185.347656 146.992188 183.335938 145.253906 182.871094 C 143.515625 182.40625 142.191406 183.894531 140.988281 185.242188 L 140.957031 185.273438 C 141.1875 185.554688 141.425781 185.839844 141.671875 186.132812 L 141.695312 186.109375 C 141.726562 186.074219 141.753906 186.039062 141.785156 186.007812 C 142.867188 184.785156 143.894531 183.636719 144.96875 183.933594 C 146.042969 184.234375 146.324219 185.734375 146.628906 187.332031 C 146.980469 189.1875 147.378906 191.300781 149.277344 191.738281 C 151.179688 192.179688 152.46875 190.460938 153.613281 188.953125 C 154.59375 187.65625 155.523438 186.425781 156.609375 186.644531 C 157.695312 186.859375 158.09375 188.328125 158.515625 189.898438 C 159.007812 191.722656 159.5625 193.785156 161.488281 194.085938 C 163.410156 194.390625 164.5625 192.566406 165.582031 190.976562 C 166.46875 189.605469 167.285156 188.3125 168.386719 188.441406 C 169.484375 188.574219 169.988281 190.011719 170.53125 191.542969 C 171.15625 193.320312 171.859375 195.339844 173.804688 195.5 C 175.753906 195.660156 176.753906 193.75 177.644531 192.082031 C 178.414062 190.652344 179.136719 189.296875 180.238281 189.34375 C 181.34375 189.394531 181.957031 190.785156 182.613281 192.273438 C 183.371094 194 184.234375 195.957031 186.179688 195.96875 C 188.128906 195.980469 188.980469 194 189.742188 192.273438 C 190.40625 190.785156 191.019531 189.378906 192.121094 189.34375 C 193.222656 189.308594 193.941406 190.652344 194.710938 192.085938 C 195.597656 193.75 196.613281 195.636719 198.554688 195.5 C 200.496094 195.363281 201.195312 193.328125 201.828125 191.554688 C 202.367188 190.011719 202.878906 188.570312 203.976562 188.453125 C 205.074219 188.332031 205.898438 189.617188 206.773438 190.984375 C 207.792969 192.578125 208.949219 194.378906 210.875 194.09375 C 212.804688 193.8125 213.351562 191.726562 213.839844 189.910156 C 214.265625 188.335938 214.664062 186.851562 215.753906 186.648438 C 216.84375 186.445312 217.765625 187.660156 218.746094 188.960938 C 219.886719 190.46875 221.183594 192.179688 223.085938 191.746094 C 224.988281 191.3125 225.378906 189.195312 225.730469 187.339844 C 226.03125 185.734375 226.316406 184.222656 227.398438 183.933594 Z M 227.398438 183.933594 " fill-opacity="1" fill-rule="nonzero"/><g transform="matrix(1, 0, 0, 1, 107, 219)"><g clip-path="url(#54f3db62d8)"><g fill="#7e921c" fill-opacity="1"><g transform="translate(0.311699, 27.005904)"><g><path d="M 7.8125 -12.734375 L 7.8125 -11.71875 C 7.976562 -11.695312 8.148438 -11.679688 8.328125 -11.671875 C 8.515625 -11.660156 8.785156 -11.65625 9.140625 -11.65625 C 10.597656 -11.65625 11.660156 -11.90625 12.328125 -12.40625 C 13.003906 -12.914062 13.34375 -13.710938 13.34375 -14.796875 C 13.34375 -15.828125 13.03125 -16.617188 12.40625 -17.171875 C 11.789062 -17.734375 10.90625 -18.015625 9.75 -18.015625 C 9.1875 -18.015625 8.773438 -17.957031 8.515625 -17.84375 C 8.265625 -17.726562 8.097656 -17.53125 8.015625 -17.25 C 7.941406 -17.039062 7.890625 -16.671875 7.859375 -16.140625 C 7.828125 -15.617188 7.8125 -14.484375 7.8125 -12.734375 Z M 7.8125 -8.828125 C 7.8125 -8.546875 7.804688 -8.171875 7.796875 -7.703125 C 7.785156 -7.234375 7.78125 -6.898438 7.78125 -6.703125 C 7.78125 -5.578125 7.800781 -4.71875 7.84375 -4.125 C 7.894531 -3.539062 7.976562 -3.164062 8.09375 -3 C 8.144531 -2.914062 8.441406 -2.734375 8.984375 -2.453125 C 9.535156 -2.179688 9.8125 -1.800781 9.8125 -1.3125 C 9.8125 -0.769531 9.492188 -0.390625 8.859375 -0.171875 C 8.234375 0.0351562 7.039062 0.140625 5.28125 0.140625 C 3.457031 0.140625 2.238281 0.0351562 1.625 -0.171875 C 1.007812 -0.390625 0.703125 -0.769531 0.703125 -1.3125 C 0.703125 -1.800781 0.972656 -2.179688 1.515625 -2.453125 C 2.066406 -2.734375 2.375 -2.914062 2.4375 -3 C 2.570312 -3.195312 2.675781 -3.988281 2.75 -5.375 C 2.820312 -6.769531 2.859375 -8.648438 2.859375 -11.015625 C 2.859375 -12.878906 2.820312 -14.375 2.75 -15.5 C 2.675781 -16.625 2.570312 -17.28125 2.4375 -17.46875 C 2.363281 -17.570312 2.054688 -17.757812 1.515625 -18.03125 C 0.972656 -18.300781 0.703125 -18.675781 0.703125 -19.15625 C 0.703125 -19.601562 0.894531 -19.941406 1.28125 -20.171875 C 1.664062 -20.398438 2.234375 -20.515625 2.984375 -20.515625 C 3.472656 -20.515625 4.054688 -20.503906 4.734375 -20.484375 C 5.410156 -20.460938 5.84375 -20.453125 6.03125 -20.453125 C 6.738281 -20.453125 7.6875 -20.476562 8.875 -20.53125 C 10.070312 -20.59375 10.914062 -20.625 11.40625 -20.625 C 13.695312 -20.625 15.429688 -20.160156 16.609375 -19.234375 C 17.785156 -18.316406 18.375 -16.960938 18.375 -15.171875 C 18.375 -13.867188 18.023438 -12.742188 17.328125 -11.796875 C 16.640625 -10.859375 15.722656 -10.257812 14.578125 -10 C 14.535156 -9.957031 14.503906 -9.925781 14.484375 -9.90625 C 14.472656 -9.882812 14.46875 -9.867188 14.46875 -9.859375 C 14.46875 -9.835938 14.472656 -9.816406 14.484375 -9.796875 C 14.503906 -9.773438 14.535156 -9.742188 14.578125 -9.703125 C 15.046875 -9.566406 15.457031 -9.394531 15.8125 -9.1875 C 16.164062 -8.988281 16.488281 -8.742188 16.78125 -8.453125 C 16.976562 -8.234375 17.160156 -7.984375 17.328125 -7.703125 C 17.492188 -7.429688 17.632812 -7.128906 17.75 -6.796875 C 17.914062 -6.367188 18.09375 -5.738281 18.28125 -4.90625 C 18.476562 -4.070312 18.664062 -3.492188 18.84375 -3.171875 C 19.050781 -2.828125 19.453125 -2.582031 20.046875 -2.4375 C 20.179688 -2.414062 20.289062 -2.390625 20.375 -2.359375 C 20.6875 -2.242188 20.910156 -2.109375 21.046875 -1.953125 C 21.191406 -1.804688 21.265625 -1.601562 21.265625 -1.34375 C 21.265625 -0.800781 20.953125 -0.375 20.328125 -0.0625 C 19.703125 0.238281 18.84375 0.390625 17.75 0.390625 C 17.03125 0.390625 16.40625 0.304688 15.875 0.140625 C 15.351562 -0.015625 14.910156 -0.257812 14.546875 -0.59375 C 13.929688 -1.164062 13.367188 -2.363281 12.859375 -4.1875 C 12.734375 -4.59375 12.644531 -4.898438 12.59375 -5.109375 C 12.113281 -6.660156 11.609375 -7.671875 11.078125 -8.140625 C 10.546875 -8.609375 9.71875 -8.84375 8.59375 -8.84375 C 8.382812 -8.84375 8.222656 -8.835938 8.109375 -8.828125 C 8.003906 -8.828125 7.90625 -8.828125 7.8125 -8.828125 Z M 7.8125 -8.828125 "/></g></g></g><g fill="#7e921c" fill-opacity="1"><g transform="translate(20.833612, 27.005904)"><g><path d="M 13.421875 -6.90625 L 6.546875 -6.90625 C 6.222656 -6.90625 6.019531 -6.875 5.9375 -6.8125 C 5.851562 -6.75 5.8125 -6.632812 5.8125 -6.46875 C 5.8125 -5.488281 6.171875 -4.640625 6.890625 -3.921875 C 7.609375 -3.210938 8.484375 -2.859375 9.515625 -2.859375 C 10.285156 -2.859375 11.09375 -3.0625 11.9375 -3.46875 C 12.789062 -3.875 13.285156 -4.078125 13.421875 -4.078125 C 13.691406 -4.078125 13.921875 -3.992188 14.109375 -3.828125 C 14.296875 -3.671875 14.390625 -3.484375 14.390625 -3.265625 C 14.390625 -2.898438 14.296875 -2.5625 14.109375 -2.25 C 13.921875 -1.945312 13.597656 -1.617188 13.140625 -1.265625 C 12.460938 -0.722656 11.695312 -0.3125 10.84375 -0.03125 C 9.988281 0.25 9.085938 0.390625 8.140625 0.390625 C 5.941406 0.390625 4.15625 -0.296875 2.78125 -1.671875 C 1.414062 -3.046875 0.734375 -4.832031 0.734375 -7.03125 C 0.734375 -9.25 1.441406 -11.078125 2.859375 -12.515625 C 4.273438 -13.953125 6.078125 -14.671875 8.265625 -14.671875 C 10.160156 -14.671875 11.71875 -14.132812 12.9375 -13.0625 C 14.164062 -11.988281 14.78125 -10.628906 14.78125 -8.984375 C 14.78125 -8.117188 14.6875 -7.554688 14.5 -7.296875 C 14.3125 -7.035156 13.953125 -6.90625 13.421875 -6.90625 Z M 6.265625 -8.953125 L 9.890625 -8.953125 C 10.078125 -8.953125 10.210938 -8.988281 10.296875 -9.0625 C 10.378906 -9.132812 10.421875 -9.269531 10.421875 -9.46875 C 10.421875 -10.3125 10.195312 -11 9.75 -11.53125 C 9.300781 -12.0625 8.726562 -12.328125 8.03125 -12.328125 C 7.40625 -12.328125 6.863281 -12.039062 6.40625 -11.46875 C 5.957031 -10.894531 5.734375 -10.191406 5.734375 -9.359375 C 5.734375 -9.210938 5.769531 -9.109375 5.84375 -9.046875 C 5.925781 -8.992188 6.066406 -8.960938 6.265625 -8.953125 Z M 6.265625 -8.953125 "/></g></g></g><g fill="#7e921c" fill-opacity="1"><g transform="translate(36.115398, 27.005904)"><g><path d="M 0.734375 -6.9375 C 0.734375 -9.164062 1.492188 -11.015625 3.015625 -12.484375 C 4.546875 -13.953125 6.472656 -14.6875 8.796875 -14.6875 C 10.441406 -14.6875 11.800781 -14.289062 12.875 -13.5 C 13.957031 -12.707031 14.5 -11.738281 14.5 -10.59375 C 14.5 -9.925781 14.289062 -9.382812 13.875 -8.96875 C 13.457031 -8.550781 12.914062 -8.34375 12.25 -8.34375 C 11.6875 -8.34375 11.222656 -8.503906 10.859375 -8.828125 C 10.503906 -9.160156 10.085938 -9.914062 9.609375 -11.09375 C 9.460938 -11.457031 9.226562 -11.742188 8.90625 -11.953125 C 8.582031 -12.171875 8.21875 -12.28125 7.8125 -12.28125 C 7.09375 -12.28125 6.535156 -11.988281 6.140625 -11.40625 C 5.753906 -10.820312 5.5625 -10 5.5625 -8.9375 C 5.5625 -7.195312 5.960938 -5.769531 6.765625 -4.65625 C 7.566406 -3.550781 8.585938 -3 9.828125 -3 C 10.429688 -3 11.128906 -3.1875 11.921875 -3.5625 C 12.722656 -3.9375 13.234375 -4.125 13.453125 -4.125 C 13.734375 -4.125 13.96875 -4.035156 14.15625 -3.859375 C 14.34375 -3.691406 14.4375 -3.472656 14.4375 -3.203125 C 14.4375 -2.921875 14.335938 -2.625 14.140625 -2.3125 C 13.953125 -2 13.6875 -1.703125 13.34375 -1.421875 C 12.539062 -0.804688 11.726562 -0.347656 10.90625 -0.046875 C 10.09375 0.242188 9.210938 0.390625 8.265625 0.390625 C 6.023438 0.390625 4.207031 -0.285156 2.8125 -1.640625 C 1.425781 -2.992188 0.734375 -4.757812 0.734375 -6.9375 Z M 0.734375 -6.9375 "/></g></g></g><g fill="#7e921c" fill-opacity="1"><g transform="translate(50.807318, 27.005904)"><g><path d="M 1.546875 -18.390625 C 1.546875 -19.054688 1.859375 -19.628906 2.484375 -20.109375 C 3.109375 -20.585938 3.863281 -20.828125 4.75 -20.828125 C 5.570312 -20.828125 6.253906 -20.613281 6.796875 -20.1875 C 7.335938 -19.757812 7.609375 -19.226562 7.609375 -18.59375 C 7.609375 -17.945312 7.304688 -17.394531 6.703125 -16.9375 C 6.097656 -16.488281 5.351562 -16.265625 4.46875 -16.265625 C 3.613281 -16.265625 2.910156 -16.460938 2.359375 -16.859375 C 1.816406 -17.265625 1.546875 -17.773438 1.546875 -18.390625 Z M 7.296875 -9.015625 L 7.296875 -5.5 C 7.296875 -4.363281 7.320312 -3.601562 7.375 -3.21875 C 7.4375 -2.832031 7.535156 -2.582031 7.671875 -2.46875 C 7.765625 -2.40625 7.921875 -2.316406 8.140625 -2.203125 C 8.722656 -1.929688 9.015625 -1.582031 9.015625 -1.15625 C 9.015625 -0.664062 8.71875 -0.320312 8.125 -0.125 C 7.539062 0.0703125 6.476562 0.171875 4.9375 0.171875 C 3.40625 0.171875 2.347656 0.0703125 1.765625 -0.125 C 1.191406 -0.320312 0.90625 -0.664062 0.90625 -1.15625 C 0.90625 -1.582031 1.1875 -1.929688 1.75 -2.203125 C 1.96875 -2.316406 2.125 -2.40625 2.21875 -2.46875 C 2.363281 -2.59375 2.460938 -2.875 2.515625 -3.3125 C 2.578125 -3.757812 2.609375 -4.640625 2.609375 -5.953125 C 2.609375 -8.015625 2.570312 -9.316406 2.5 -9.859375 C 2.425781 -10.398438 2.289062 -10.75 2.09375 -10.90625 C 2.0625 -10.9375 1.789062 -11.023438 1.28125 -11.171875 C 0.78125 -11.328125 0.53125 -11.628906 0.53125 -12.078125 C 0.53125 -12.304688 0.625 -12.515625 0.8125 -12.703125 C 1 -12.898438 1.28125 -13.085938 1.65625 -13.265625 C 2.507812 -13.660156 3.351562 -13.96875 4.1875 -14.1875 C 5.019531 -14.414062 5.734375 -14.53125 6.328125 -14.53125 C 6.734375 -14.53125 7.003906 -14.445312 7.140625 -14.28125 C 7.273438 -14.113281 7.34375 -13.75 7.34375 -13.1875 C 7.34375 -13.101562 7.335938 -12.898438 7.328125 -12.578125 C 7.304688 -11.316406 7.296875 -10.128906 7.296875 -9.015625 Z M 7.296875 -9.015625 "/></g></g></g><g fill="#7e921c" fill-opacity="1"><g transform="translate(60.190389, 27.005904)"><g><path d="M 6.859375 -5.453125 C 6.859375 -4.304688 7.03125 -3.5 7.375 -3.03125 C 7.71875 -2.5625 8.296875 -2.328125 9.109375 -2.328125 C 10.003906 -2.328125 10.734375 -2.707031 11.296875 -3.46875 C 11.859375 -4.226562 12.140625 -5.226562 12.140625 -6.46875 C 12.140625 -7.832031 11.84375 -8.925781 11.25 -9.75 C 10.65625 -10.570312 9.875 -10.984375 8.90625 -10.984375 C 8.21875 -10.984375 7.703125 -10.773438 7.359375 -10.359375 C 7.023438 -9.953125 6.859375 -9.335938 6.859375 -8.515625 Z M 6.859375 -13.515625 L 6.859375 -13 C 6.859375 -12.875 6.867188 -12.78125 6.890625 -12.71875 C 6.921875 -12.664062 6.96875 -12.640625 7.03125 -12.640625 C 7.101562 -12.640625 7.28125 -12.765625 7.5625 -13.015625 C 8.664062 -14.023438 9.828125 -14.53125 11.046875 -14.53125 C 12.773438 -14.53125 14.234375 -13.835938 15.421875 -12.453125 C 16.617188 -11.078125 17.21875 -9.375 17.21875 -7.34375 C 17.21875 -6.257812 17.03125 -5.25 16.65625 -4.3125 C 16.28125 -3.382812 15.726562 -2.554688 15 -1.828125 C 14.320312 -1.148438 13.5625 -0.628906 12.71875 -0.265625 C 11.882812 0.0976562 11.023438 0.28125 10.140625 0.28125 C 9.109375 0.28125 8.148438 -0.015625 7.265625 -0.609375 C 7.109375 -0.703125 7.019531 -0.75 7 -0.75 C 6.9375 -0.75 6.890625 -0.675781 6.859375 -0.53125 C 6.835938 -0.394531 6.828125 -0.179688 6.828125 0.109375 C 6.828125 1.003906 6.84375 1.628906 6.875 1.984375 C 6.914062 2.335938 6.984375 2.578125 7.078125 2.703125 C 7.140625 2.785156 7.445312 2.945312 8 3.1875 C 8.5625 3.4375 8.84375 3.757812 8.84375 4.15625 C 8.84375 4.625 8.488281 4.957031 7.78125 5.15625 C 7.082031 5.363281 5.921875 5.46875 4.296875 5.46875 C 2.859375 5.46875 1.851562 5.367188 1.28125 5.171875 C 0.707031 4.972656 0.421875 4.632812 0.421875 4.15625 C 0.421875 3.726562 0.71875 3.367188 1.3125 3.078125 C 1.519531 2.960938 1.671875 2.875 1.765625 2.8125 C 1.929688 2.675781 2.046875 2.15625 2.109375 1.25 C 2.179688 0.351562 2.21875 -1.578125 2.21875 -4.546875 C 2.21875 -6.960938 2.175781 -8.582031 2.09375 -9.40625 C 2.007812 -10.238281 1.859375 -10.738281 1.640625 -10.90625 C 1.609375 -10.9375 1.335938 -11.023438 0.828125 -11.171875 C 0.328125 -11.328125 0.078125 -11.628906 0.078125 -12.078125 C 0.078125 -12.304688 0.171875 -12.515625 0.359375 -12.703125 C 0.546875 -12.898438 0.828125 -13.085938 1.203125 -13.265625 C 2.046875 -13.660156 2.882812 -13.96875 3.71875 -14.1875 C 4.5625 -14.414062 5.28125 -14.53125 5.875 -14.53125 C 6.25 -14.53125 6.503906 -14.457031 6.640625 -14.3125 C 6.785156 -14.164062 6.859375 -13.898438 6.859375 -13.515625 Z M 6.859375 -13.515625 "/></g></g></g><g fill="#7e921c" fill-opacity="1"><g transform="translate(78.174614, 27.005904)"><g><path d="M 13.421875 -6.90625 L 6.546875 -6.90625 C 6.222656 -6.90625 6.019531 -6.875 5.9375 -6.8125 C 5.851562 -6.75 5.8125 -6.632812 5.8125 -6.46875 C 5.8125 -5.488281 6.171875 -4.640625 6.890625 -3.921875 C 7.609375 -3.210938 8.484375 -2.859375 9.515625 -2.859375 C 10.285156 -2.859375 11.09375 -3.0625 11.9375 -3.46875 C 12.789062 -3.875 13.285156 -4.078125 13.421875 -4.078125 C 13.691406 -4.078125 13.921875 -3.992188 14.109375 -3.828125 C 14.296875 -3.671875 14.390625 -3.484375 14.390625 -3.265625 C 14.390625 -2.898438 14.296875 -2.5625 14.109375 -2.25 C 13.921875 -1.945312 13.597656 -1.617188 13.140625 -1.265625 C 12.460938 -0.722656 11.695312 -0.3125 10.84375 -0.03125 C 9.988281 0.25 9.085938 0.390625 8.140625 0.390625 C 5.941406 0.390625 4.15625 -0.296875 2.78125 -1.671875 C 1.414062 -3.046875 0.734375 -4.832031 0.734375 -7.03125 C 0.734375 -9.25 1.441406 -11.078125 2.859375 -12.515625 C 4.273438 -13.953125 6.078125 -14.671875 8.265625 -14.671875 C 10.160156 -14.671875 11.71875 -14.132812 12.9375 -13.0625 C 14.164062 -11.988281 14.78125 -10.628906 14.78125 -8.984375 C 14.78125 -8.117188 14.6875 -7.554688 14.5 -7.296875 C 14.3125 -7.035156 13.953125 -6.90625 13.421875 -6.90625 Z M 6.265625 -8.953125 L 9.890625 -8.953125 C 10.078125 -8.953125 10.210938 -8.988281 10.296875 -9.0625 C 10.378906 -9.132812 10.421875 -9.269531 10.421875 -9.46875 C 10.421875 -10.3125 10.195312 -11 9.75 -11.53125 C 9.300781 -12.0625 8.726562 -12.328125 8.03125 -12.328125 C 7.40625 -12.328125 6.863281 -12.039062 6.40625 -11.46875 C 5.957031 -10.894531 5.734375 -10.191406 5.734375 -9.359375 C 5.734375 -9.210938 5.769531 -9.109375 5.84375 -9.046875 C 5.925781 -8.992188 6.066406 -8.960938 6.265625 -8.953125 Z M 6.265625 -8.953125 "/></g></g></g><g fill="#7e921c" fill-opacity="1"><g transform="translate(93.456401, 27.005904)"><g><path d="M 4.796875 -5.46875 C 4.253906 -5.46875 3.695312 -5.445312 3.125 -5.40625 C 2.550781 -5.363281 2.25 -5.34375 2.21875 -5.34375 C 1.894531 -5.34375 1.660156 -5.414062 1.515625 -5.5625 C 1.378906 -5.707031 1.3125 -5.953125 1.3125 -6.296875 C 1.3125 -6.578125 1.351562 -6.898438 1.4375 -7.265625 C 1.53125 -7.640625 1.660156 -8.035156 1.828125 -8.453125 C 1.992188 -8.878906 2.144531 -9.144531 2.28125 -9.25 C 2.425781 -9.351562 2.753906 -9.40625 3.265625 -9.40625 C 3.359375 -9.40625 3.707031 -9.398438 4.3125 -9.390625 C 4.914062 -9.390625 5.484375 -9.390625 6.015625 -9.390625 C 6.554688 -9.390625 7.109375 -9.414062 7.671875 -9.46875 C 8.242188 -9.519531 8.546875 -9.546875 8.578125 -9.546875 C 8.898438 -9.546875 9.132812 -9.472656 9.28125 -9.328125 C 9.425781 -9.179688 9.5 -8.9375 9.5 -8.59375 C 9.5 -8.3125 9.453125 -7.984375 9.359375 -7.609375 C 9.273438 -7.242188 9.148438 -6.851562 8.984375 -6.4375 C 8.816406 -6 8.660156 -5.722656 8.515625 -5.609375 C 8.367188 -5.503906 8.03125 -5.453125 7.5 -5.453125 C 7.425781 -5.453125 7.09375 -5.453125 6.5 -5.453125 C 5.90625 -5.460938 5.335938 -5.46875 4.796875 -5.46875 Z M 4.796875 -5.46875 "/></g></g></g><g fill="#7e921c" fill-opacity="1"><g transform="translate(103.388063, 27.005904)"><g><path d="M 11.75 -8.375 L 11.40625 -9.3125 C 10.363281 -12.320312 9.707031 -13.828125 9.4375 -13.828125 C 9.144531 -13.828125 8.40625 -12.234375 7.21875 -9.046875 L 6.96875 -8.375 C 7.550781 -8.394531 8.003906 -8.40625 8.328125 -8.40625 C 8.660156 -8.414062 8.972656 -8.421875 9.265625 -8.421875 C 9.554688 -8.421875 9.867188 -8.414062 10.203125 -8.40625 C 10.535156 -8.40625 11.050781 -8.394531 11.75 -8.375 Z M 16.515625 0.140625 C 14.960938 0.140625 13.867188 0.03125 13.234375 -0.1875 C 12.597656 -0.40625 12.28125 -0.773438 12.28125 -1.296875 C 12.28125 -1.492188 12.320312 -1.671875 12.40625 -1.828125 C 12.488281 -1.992188 12.597656 -2.113281 12.734375 -2.1875 C 12.816406 -2.238281 12.945312 -2.300781 13.125 -2.375 C 13.53125 -2.5625 13.734375 -2.765625 13.734375 -2.984375 C 13.734375 -3.359375 13.601562 -3.832031 13.34375 -4.40625 C 13.09375 -4.976562 12.84375 -5.351562 12.59375 -5.53125 C 12.457031 -5.625 12.113281 -5.6875 11.5625 -5.71875 C 11.019531 -5.757812 10.273438 -5.78125 9.328125 -5.78125 C 8.128906 -5.78125 7.296875 -5.757812 6.828125 -5.71875 C 6.359375 -5.6875 6.0625 -5.632812 5.9375 -5.5625 C 5.757812 -5.476562 5.5625 -5.179688 5.34375 -4.671875 C 5.132812 -4.171875 5.03125 -3.753906 5.03125 -3.421875 C 5.03125 -3.234375 5.078125 -3.078125 5.171875 -2.953125 C 5.273438 -2.828125 5.457031 -2.707031 5.71875 -2.59375 C 5.769531 -2.5625 5.847656 -2.523438 5.953125 -2.484375 C 6.671875 -2.160156 7.03125 -1.765625 7.03125 -1.296875 C 7.03125 -0.785156 6.734375 -0.425781 6.140625 -0.21875 C 5.554688 -0.0195312 4.472656 0.078125 2.890625 0.078125 C 1.796875 0.078125 0.96875 -0.03125 0.40625 -0.25 C -0.144531 -0.476562 -0.421875 -0.816406 -0.421875 -1.265625 C -0.421875 -1.796875 0 -2.21875 0.84375 -2.53125 C 1.132812 -2.65625 1.34375 -2.75 1.46875 -2.8125 C 1.945312 -3.050781 2.785156 -4.679688 3.984375 -7.703125 C 4.335938 -8.617188 4.617188 -9.335938 4.828125 -9.859375 C 4.984375 -10.253906 5.21875 -10.820312 5.53125 -11.5625 C 7.039062 -15.28125 7.90625 -17.847656 8.125 -19.265625 C 8.21875 -19.921875 8.390625 -20.335938 8.640625 -20.515625 C 8.898438 -20.703125 9.34375 -20.796875 9.96875 -20.796875 C 10.550781 -20.796875 11.007812 -20.71875 11.34375 -20.5625 C 11.6875 -20.414062 11.988281 -20.15625 12.25 -19.78125 C 12.59375 -19.269531 13.171875 -18.046875 13.984375 -16.109375 C 14.804688 -14.179688 16.3125 -10.40625 18.5 -4.78125 L 18.5625 -4.65625 C 18.957031 -3.582031 19.503906 -2.941406 20.203125 -2.734375 C 20.691406 -2.578125 21.054688 -2.382812 21.296875 -2.15625 C 21.535156 -1.925781 21.65625 -1.65625 21.65625 -1.34375 C 21.65625 -0.800781 21.273438 -0.414062 20.515625 -0.1875 C 19.765625 0.03125 18.429688 0.140625 16.515625 0.140625 Z M 16.515625 0.140625 "/></g></g></g><g fill="#7e921c" fill-opacity="1"><g transform="translate(124.705743, 27.005904)"><g><path d="M 6.859375 -5.453125 C 6.859375 -4.304688 7.03125 -3.5 7.375 -3.03125 C 7.71875 -2.5625 8.296875 -2.328125 9.109375 -2.328125 C 10.003906 -2.328125 10.734375 -2.707031 11.296875 -3.46875 C 11.859375 -4.226562 12.140625 -5.226562 12.140625 -6.46875 C 12.140625 -7.832031 11.84375 -8.925781 11.25 -9.75 C 10.65625 -10.570312 9.875 -10.984375 8.90625 -10.984375 C 8.21875 -10.984375 7.703125 -10.773438 7.359375 -10.359375 C 7.023438 -9.953125 6.859375 -9.335938 6.859375 -8.515625 Z M 6.859375 -13.515625 L 6.859375 -13 C 6.859375 -12.875 6.867188 -12.78125 6.890625 -12.71875 C 6.921875 -12.664062 6.96875 -12.640625 7.03125 -12.640625 C 7.101562 -12.640625 7.28125 -12.765625 7.5625 -13.015625 C 8.664062 -14.023438 9.828125 -14.53125 11.046875 -14.53125 C 12.773438 -14.53125 14.234375 -13.835938 15.421875 -12.453125 C 16.617188 -11.078125 17.21875 -9.375 17.21875 -7.34375 C 17.21875 -6.257812 17.03125 -5.25 16.65625 -4.3125 C 16.28125 -3.382812 15.726562 -2.554688 15 -1.828125 C 14.320312 -1.148438 13.5625 -0.628906 12.71875 -0.265625 C 11.882812 0.0976562 11.023438 0.28125 10.140625 0.28125 C 9.109375 0.28125 8.148438 -0.015625 7.265625 -0.609375 C 7.109375 -0.703125 7.019531 -0.75 7 -0.75 C 6.9375 -0.75 6.890625 -0.675781 6.859375 -0.53125 C 6.835938 -0.394531 6.828125 -0.179688 6.828125 0.109375 C 6.828125 1.003906 6.84375 1.628906 6.875 1.984375 C 6.914062 2.335938 6.984375 2.578125 7.078125 2.703125 C 7.140625 2.785156 7.445312 2.945312 8 3.1875 C 8.5625 3.4375 8.84375 3.757812 8.84375 4.15625 C 8.84375 4.625 8.488281 4.957031 7.78125 5.15625 C 7.082031 5.363281 5.921875 5.46875 4.296875 5.46875 C 2.859375 5.46875 1.851562 5.367188 1.28125 5.171875 C 0.707031 4.972656 0.421875 4.632812 0.421875 4.15625 C 0.421875 3.726562 0.71875 3.367188 1.3125 3.078125 C 1.519531 2.960938 1.671875 2.875 1.765625 2.8125 C 1.929688 2.675781 2.046875 2.15625 2.109375 1.25 C 2.179688 0.351562 2.21875 -1.578125 2.21875 -4.546875 C 2.21875 -6.960938 2.175781 -8.582031 2.09375 -9.40625 C 2.007812 -10.238281 1.859375 -10.738281 1.640625 -10.90625 C 1.609375 -10.9375 1.335938 -11.023438 0.828125 -11.171875 C 0.328125 -11.328125 0.078125 -11.628906 0.078125 -12.078125 C 0.078125 -12.304688 0.171875 -12.515625 0.359375 -12.703125 C 0.546875 -12.898438 0.828125 -13.085938 1.203125 -13.265625 C 2.046875 -13.660156 2.882812 -13.96875 3.71875 -14.1875 C 4.5625 -14.414062 5.28125 -14.53125 5.875 -14.53125 C 6.25 -14.53125 6.503906 -14.457031 6.640625 -14.3125 C 6.785156 -14.164062 6.859375 -13.898438 6.859375 -13.515625 Z M 6.859375 -13.515625 "/></g></g></g><g fill="#7e921c" fill-opacity="1"><g transform="translate(142.689969, 27.005904)"><g><path d="M 6.859375 -5.453125 C 6.859375 -4.304688 7.03125 -3.5 7.375 -3.03125 C 7.71875 -2.5625 8.296875 -2.328125 9.109375 -2.328125 C 10.003906 -2.328125 10.734375 -2.707031 11.296875 -3.46875 C 11.859375 -4.226562 12.140625 -5.226562 12.140625 -6.46875 C 12.140625 -7.832031 11.84375 -8.925781 11.25 -9.75 C 10.65625 -10.570312 9.875 -10.984375 8.90625 -10.984375 C 8.21875 -10.984375 7.703125 -10.773438 7.359375 -10.359375 C 7.023438 -9.953125 6.859375 -9.335938 6.859375 -8.515625 Z M 6.859375 -13.515625 L 6.859375 -13 C 6.859375 -12.875 6.867188 -12.78125 6.890625 -12.71875 C 6.921875 -12.664062 6.96875 -12.640625 7.03125 -12.640625 C 7.101562 -12.640625 7.28125 -12.765625 7.5625 -13.015625 C 8.664062 -14.023438 9.828125 -14.53125 11.046875 -14.53125 C 12.773438 -14.53125 14.234375 -13.835938 15.421875 -12.453125 C 16.617188 -11.078125 17.21875 -9.375 17.21875 -7.34375 C 17.21875 -6.257812 17.03125 -5.25 16.65625 -4.3125 C 16.28125 -3.382812 15.726562 -2.554688 15 -1.828125 C 14.320312 -1.148438 13.5625 -0.628906 12.71875 -0.265625 C 11.882812 0.0976562 11.023438 0.28125 10.140625 0.28125 C 9.109375 0.28125 8.148438 -0.015625 7.265625 -0.609375 C 7.109375 -0.703125 7.019531 -0.75 7 -0.75 C 6.9375 -0.75 6.890625 -0.675781 6.859375 -0.53125 C 6.835938 -0.394531 6.828125 -0.179688 6.828125 0.109375 C 6.828125 1.003906 6.84375 1.628906 6.875 1.984375 C 6.914062 2.335938 6.984375 2.578125 7.078125 2.703125 C 7.140625 2.785156 7.445312 2.945312 8 3.1875 C 8.5625 3.4375 8.84375 3.757812 8.84375 4.15625 C 8.84375 4.625 8.488281 4.957031 7.78125 5.15625 C 7.082031 5.363281 5.921875 5.46875 4.296875 5.46875 C 2.859375 5.46875 1.851562 5.367188 1.28125 5.171875 C 0.707031 4.972656 0.421875 4.632812 0.421875 4.15625 C 0.421875 3.726562 0.71875 3.367188 1.3125 3.078125 C 1.519531 2.960938 1.671875 2.875 1.765625 2.8125 C 1.929688 2.675781 2.046875 2.15625 2.109375 1.25 C 2.179688 0.351562 2.21875 -1.578125 2.21875 -4.546875 C 2.21875 -6.960938 2.175781 -8.582031 2.09375 -9.40625 C 2.007812 -10.238281 1.859375 -10.738281 1.640625 -10.90625 C 1.609375 -10.9375 1.335938 -11.023438 0.828125 -11.171875 C 0.328125 -11.328125 0.078125 -11.628906 0.078125 -12.078125 C 0.078125 -12.304688 0.171875 -12.515625 0.359375 -12.703125 C 0.546875 -12.898438 0.828125 -13.085938 1.203125 -13.265625 C 2.046875 -13.660156 2.882812 -13.96875 3.71875 -14.1875 C 4.5625 -14.414062 5.28125 -14.53125 5.875 -14.53125 C 6.25 -14.53125 6.503906 -14.457031 6.640625 -14.3125 C 6.785156 -14.164062 6.859375 -13.898438 6.859375 -13.515625 Z M 6.859375 -13.515625 "/></g></g></g></g></g><g fill="#7e921c" fill-opacity="1"><g transform="translate(87.224881, 262.753634)"><g><path d="M 1.109375 0 L 1.109375 -7.796875 L 3.515625 -7.796875 C 5.429688 -7.796875 6.585938 -7.035156 6.984375 -5.515625 C 7.109375 -5.023438 7.171875 -4.484375 7.171875 -3.890625 L 7.171875 -3.6875 C 7.171875 -2.507812 6.851562 -1.601562 6.21875 -0.96875 C 5.570312 -0.320312 4.660156 0 3.484375 0 Z M 1.96875 -0.78125 L 3.484375 -0.78125 C 4.390625 -0.78125 5.082031 -1.046875 5.5625 -1.578125 C 6.039062 -2.085938 6.28125 -2.789062 6.28125 -3.6875 L 6.28125 -3.890625 C 6.257812 -4.953125 6.035156 -5.726562 5.609375 -6.21875 C 5.171875 -6.738281 4.46875 -7 3.5 -7 L 1.96875 -7 Z M 1.96875 -0.78125 "/></g></g></g><g fill="#7e921c" fill-opacity="1"><g transform="translate(98.22564, 262.753634)"><g><path d="M 4.796875 -0.171875 C 4.304688 0.00390625 3.816406 0.09375 3.328125 0.09375 C 2.316406 0.09375 1.59375 -0.207031 1.15625 -0.8125 C 0.789062 -1.300781 0.609375 -2.007812 0.609375 -2.9375 C 0.609375 -3.863281 0.816406 -4.582031 1.234375 -5.09375 C 1.648438 -5.601562 2.257812 -5.863281 3.0625 -5.875 C 3.820312 -5.875 4.390625 -5.585938 4.765625 -5.015625 C 5.117188 -4.503906 5.296875 -3.785156 5.296875 -2.859375 L 5.296875 -2.671875 L 1.484375 -2.671875 C 1.546875 -1.609375 1.910156 -0.960938 2.578125 -0.734375 C 2.785156 -0.671875 3.054688 -0.640625 3.390625 -0.640625 C 3.734375 -0.640625 4.144531 -0.734375 4.625 -0.921875 Z M 4.390625 -3.359375 C 4.347656 -3.929688 4.242188 -4.359375 4.078125 -4.640625 C 3.785156 -5.117188 3.28125 -5.265625 2.5625 -5.078125 C 2.164062 -4.972656 1.867188 -4.710938 1.671875 -4.296875 C 1.554688 -4.046875 1.492188 -3.734375 1.484375 -3.359375 Z M 4.390625 -3.359375 "/></g></g></g><g fill="#7e921c" fill-opacity="1"><g transform="translate(107.497081, 262.753634)"><g><path d="M 1.84375 -1.5625 C 1.820312 -1.195312 1.867188 -0.953125 1.984375 -0.828125 C 2.097656 -0.710938 2.265625 -0.65625 2.484375 -0.65625 C 2.703125 -0.65625 3.019531 -0.710938 3.4375 -0.828125 L 3.59375 -0.09375 C 3.15625 0.0195312 2.804688 0.0820312 2.546875 0.09375 C 2.285156 0.101562 2.0625 0.0820312 1.875 0.03125 C 1.6875 -0.0078125 1.523438 -0.0859375 1.390625 -0.203125 C 1.097656 -0.460938 0.960938 -0.898438 0.984375 -1.515625 L 0.984375 -8.125 L 1.84375 -8.1875 Z M 1.84375 -1.5625 "/></g></g></g><g fill="#7e921c" fill-opacity="1"><g transform="translate(114.272292, 262.753634)"><g><path d="M 1.28125 -8.125 L 2.140625 -8.125 L 2.140625 -6.921875 L 1.28125 -6.921875 Z M 1.28125 -5.796875 L 2.140625 -5.796875 L 2.140625 0 L 1.28125 0 Z M 1.28125 -5.796875 "/></g></g></g><g fill="#7e921c" fill-opacity="1"><g transform="translate(120.977328, 262.753634)"><g><path d="M 4.8125 -0.171875 C 4.332031 0.00390625 3.84375 0.09375 3.34375 0.09375 C 2.851562 0.09375 2.445312 0.0390625 2.125 -0.0625 C 1.800781 -0.175781 1.519531 -0.351562 1.28125 -0.59375 C 0.789062 -1.101562 0.546875 -1.863281 0.546875 -2.875 C 0.546875 -4.875 1.40625 -5.875 3.125 -5.875 L 3.296875 -5.875 C 3.734375 -5.851562 4.046875 -5.804688 4.234375 -5.734375 C 4.421875 -5.671875 4.554688 -5.625 4.640625 -5.59375 L 4.453125 -4.84375 C 4.035156 -5.039062 3.609375 -5.140625 3.171875 -5.140625 L 3.09375 -5.140625 C 2 -5.140625 1.453125 -4.390625 1.453125 -2.890625 C 1.453125 -2.097656 1.628906 -1.507812 1.984375 -1.125 C 2.285156 -0.800781 2.691406 -0.640625 3.203125 -0.640625 C 3.722656 -0.640625 4.21875 -0.734375 4.6875 -0.921875 Z M 4.8125 -0.171875 "/></g></g></g><g fill="#7e921c" fill-opacity="1"><g transform="translate(129.386618, 262.753634)"><g><path d="M 1.28125 -8.125 L 2.140625 -8.125 L 2.140625 -6.921875 L 1.28125 -6.921875 Z M 1.28125 -5.796875 L 2.140625 -5.796875 L 2.140625 0 L 1.28125 0 Z M 1.28125 -5.796875 "/></g></g></g><g fill="#7e921c" fill-opacity="1"><g transform="translate(136.091653, 262.753634)"><g><path d="M 0.828125 -2.828125 C 0.828125 -3.304688 0.890625 -3.738281 1.015625 -4.125 C 1.148438 -4.507812 1.335938 -4.828125 1.578125 -5.078125 C 2.054688 -5.609375 2.679688 -5.875 3.453125 -5.875 C 4.296875 -5.875 4.9375 -5.613281 5.375 -5.09375 C 5.800781 -4.582031 6.015625 -3.84375 6.015625 -2.875 C 6.015625 -1.914062 5.753906 -1.171875 5.234375 -0.640625 C 4.765625 -0.148438 4.148438 0.09375 3.390625 0.09375 C 2.585938 0.09375 1.960938 -0.15625 1.515625 -0.65625 C 1.054688 -1.15625 0.828125 -1.878906 0.828125 -2.828125 Z M 3.40625 -0.625 C 4.53125 -0.625 5.09375 -1.375 5.09375 -2.875 C 5.070312 -4 4.765625 -4.703125 4.171875 -4.984375 C 3.960938 -5.085938 3.710938 -5.140625 3.421875 -5.140625 C 3.140625 -5.140625 2.890625 -5.085938 2.671875 -4.984375 C 2.460938 -4.878906 2.285156 -4.734375 2.140625 -4.546875 C 1.847656 -4.140625 1.703125 -3.570312 1.703125 -2.84375 C 1.710938 -2.125 1.859375 -1.570312 2.140625 -1.1875 C 2.429688 -0.8125 2.851562 -0.625 3.40625 -0.625 Z M 3.40625 -0.625 "/></g></g></g><g fill="#7e921c" fill-opacity="1"><g transform="translate(146.200185, 262.753634)"><g><path d="M 5.65625 -4.84375 L 5.65625 -2.34375 C 5.65625 -0.988281 5.675781 -0.207031 5.71875 0 L 4.9375 0 L 4.828125 -0.8125 C 4.421875 -0.382812 3.953125 -0.101562 3.421875 0.03125 C 3.234375 0.0703125 3.015625 0.09375 2.765625 0.09375 C 2.515625 0.09375 2.269531 0.0507812 2.03125 -0.03125 C 1.800781 -0.125 1.601562 -0.253906 1.4375 -0.421875 C 1.09375 -0.753906 0.929688 -1.226562 0.953125 -1.84375 L 0.953125 -5.796875 L 1.796875 -5.875 L 1.796875 -2.140625 C 1.796875 -1.617188 1.875 -1.242188 2.03125 -1.015625 C 2.1875 -0.773438 2.453125 -0.65625 2.828125 -0.65625 C 3.203125 -0.65625 3.546875 -0.722656 3.859375 -0.859375 C 4.179688 -1.003906 4.503906 -1.21875 4.828125 -1.5 L 4.8125 -1.859375 C 4.800781 -2.015625 4.796875 -2.242188 4.796875 -2.546875 L 4.796875 -5.796875 L 5.65625 -5.875 C 5.65625 -5.507812 5.65625 -5.164062 5.65625 -4.84375 Z M 5.65625 -4.84375 "/></g></g></g><g fill="#7e921c" fill-opacity="1"><g transform="translate(156.308716, 262.753634)"><g><path d="M 4.078125 -4.90625 C 3.679688 -5.039062 3.253906 -5.109375 2.796875 -5.109375 C 2.367188 -5.109375 2.070312 -4.957031 1.90625 -4.65625 C 1.851562 -4.5625 1.816406 -4.445312 1.796875 -4.3125 C 1.785156 -4.175781 1.804688 -4.046875 1.859375 -3.921875 C 1.910156 -3.804688 1.988281 -3.707031 2.09375 -3.625 C 2.25 -3.476562 2.453125 -3.351562 2.703125 -3.25 C 2.960938 -3.15625 3.15625 -3.078125 3.28125 -3.015625 C 3.40625 -2.960938 3.523438 -2.898438 3.640625 -2.828125 C 3.765625 -2.753906 3.875 -2.671875 3.96875 -2.578125 C 4.070312 -2.492188 4.160156 -2.394531 4.234375 -2.28125 C 4.390625 -2.039062 4.460938 -1.765625 4.453125 -1.453125 C 4.453125 -1.140625 4.394531 -0.890625 4.28125 -0.703125 C 4.175781 -0.515625 4.03125 -0.359375 3.84375 -0.234375 C 3.5 -0.015625 3.023438 0.09375 2.421875 0.09375 C 1.804688 0.09375 1.210938 -0.015625 0.640625 -0.234375 L 0.78125 -0.984375 C 1.3125 -0.773438 1.863281 -0.664062 2.4375 -0.65625 C 2.976562 -0.632812 3.328125 -0.773438 3.484375 -1.078125 C 3.609375 -1.296875 3.617188 -1.519531 3.515625 -1.75 C 3.421875 -1.957031 3.234375 -2.132812 2.953125 -2.28125 C 2.816406 -2.34375 2.664062 -2.410156 2.5 -2.484375 C 2.332031 -2.554688 2.148438 -2.632812 1.953125 -2.71875 C 1.765625 -2.8125 1.59375 -2.929688 1.4375 -3.078125 C 1.082031 -3.378906 0.90625 -3.78125 0.90625 -4.28125 L 0.90625 -4.359375 C 0.90625 -4.609375 0.96875 -4.832031 1.09375 -5.03125 C 1.21875 -5.226562 1.367188 -5.382812 1.546875 -5.5 C 1.890625 -5.726562 2.3125 -5.851562 2.8125 -5.875 C 3.3125 -5.875 3.789062 -5.800781 4.25 -5.65625 Z M 4.078125 -4.90625 "/></g></g></g><g fill="#7e921c" fill-opacity="1"><g transform="translate(164.718006, 262.753634)"><g><path d="M 1.84375 -1.5625 C 1.820312 -1.195312 1.867188 -0.953125 1.984375 -0.828125 C 2.097656 -0.710938 2.265625 -0.65625 2.484375 -0.65625 C 2.703125 -0.65625 3.019531 -0.710938 3.4375 -0.828125 L 3.59375 -0.09375 C 3.15625 0.0195312 2.804688 0.0820312 2.546875 0.09375 C 2.285156 0.101562 2.0625 0.0820312 1.875 0.03125 C 1.6875 -0.0078125 1.523438 -0.0859375 1.390625 -0.203125 C 1.097656 -0.460938 0.960938 -0.898438 0.984375 -1.515625 L 0.984375 -8.125 L 1.84375 -8.1875 Z M 1.84375 -1.5625 "/></g></g></g><g fill="#7e921c" fill-opacity="1"><g transform="translate(171.493217, 262.753634)"><g><path d="M 0.328125 -5.796875 L 1.265625 -5.796875 L 2.953125 -0.671875 L 4.65625 -5.796875 L 5.609375 -5.796875 L 2.515625 2.703125 L 1.53125 2.359375 C 2.207031 1.097656 2.625 0.3125 2.78125 0 L 2.359375 0 Z M 0.328125 -5.796875 "/></g></g></g><g fill="#7e921c" fill-opacity="1"><g transform="translate(180.754633, 262.753634)"><g/></g></g><g fill="#7e921c" fill-opacity="1"><g transform="translate(187.469694, 262.753634)"><g><path d="M 4.28125 0.09375 C 1.8125 0.09375 0.578125 -1.226562 0.578125 -3.875 C 0.578125 -6.03125 1.40625 -7.316406 3.0625 -7.734375 C 3.414062 -7.816406 3.796875 -7.859375 4.203125 -7.859375 C 4.972656 -7.859375 5.734375 -7.707031 6.484375 -7.40625 L 6.21875 -6.65625 C 5.519531 -6.9375 4.90625 -7.078125 4.375 -7.078125 C 3.851562 -7.078125 3.421875 -7.019531 3.078125 -6.90625 C 2.734375 -6.800781 2.441406 -6.617188 2.203125 -6.359375 C 1.734375 -5.859375 1.488281 -5.03125 1.46875 -3.875 C 1.488281 -2.8125 1.710938 -2.023438 2.140625 -1.515625 C 2.609375 -0.972656 3.328125 -0.703125 4.296875 -0.703125 C 4.960938 -0.703125 5.671875 -0.851562 6.421875 -1.15625 L 6.6875 -0.40625 C 5.894531 -0.0703125 5.09375 0.09375 4.28125 0.09375 Z M 4.28125 0.09375 "/></g></g></g><g fill="#7e921c" fill-opacity="1"><g transform="translate(197.593263, 262.753634)"><g><path d="M 1.859375 -3.71875 C 1.867188 -3.46875 1.875 -3.144531 1.875 -2.75 L 1.875 0 L 1.03125 0 C 1.03125 -3.539062 1.007812 -5.472656 0.96875 -5.796875 L 1.796875 -5.875 L 1.796875 -4.46875 C 2.242188 -5.40625 2.84375 -5.875 3.59375 -5.875 C 3.851562 -5.875 4.066406 -5.851562 4.234375 -5.8125 L 4.046875 -4.921875 C 3.878906 -4.992188 3.695312 -5.03125 3.5 -5.03125 C 3.300781 -5.039062 3.117188 -5 2.953125 -4.90625 C 2.796875 -4.8125 2.648438 -4.695312 2.515625 -4.5625 C 2.378906 -4.4375 2.257812 -4.296875 2.15625 -4.140625 Z M 1.859375 -3.71875 "/></g></g></g><g fill="#7e921c" fill-opacity="1"><g transform="translate(205.145413, 262.753634)"><g><path d="M 5.65625 -4.84375 L 5.65625 -2.34375 C 5.65625 -0.988281 5.675781 -0.207031 5.71875 0 L 4.9375 0 L 4.828125 -0.8125 C 4.421875 -0.382812 3.953125 -0.101562 3.421875 0.03125 C 3.234375 0.0703125 3.015625 0.09375 2.765625 0.09375 C 2.515625 0.09375 2.269531 0.0507812 2.03125 -0.03125 C 1.800781 -0.125 1.601562 -0.253906 1.4375 -0.421875 C 1.09375 -0.753906 0.929688 -1.226562 0.953125 -1.84375 L 0.953125 -5.796875 L 1.796875 -5.875 L 1.796875 -2.140625 C 1.796875 -1.617188 1.875 -1.242188 2.03125 -1.015625 C 2.1875 -0.773438 2.453125 -0.65625 2.828125 -0.65625 C 3.203125 -0.65625 3.546875 -0.722656 3.859375 -0.859375 C 4.179688 -1.003906 4.503906 -1.21875 4.828125 -1.5 L 4.8125 -1.859375 C 4.800781 -2.015625 4.796875 -2.242188 4.796875 -2.546875 L 4.796875 -5.796875 L 5.65625 -5.875 C 5.65625 -5.507812 5.65625 -5.164062 5.65625 -4.84375 Z M 5.65625 -4.84375 "/></g></g></g><g fill="#7e921c" fill-opacity="1"><g transform="translate(215.253945, 262.753634)"><g><path d="M 4.796875 -0.171875 C 4.304688 0.00390625 3.816406 0.09375 3.328125 0.09375 C 2.316406 0.09375 1.59375 -0.207031 1.15625 -0.8125 C 0.789062 -1.300781 0.609375 -2.007812 0.609375 -2.9375 C 0.609375 -3.863281 0.816406 -4.582031 1.234375 -5.09375 C 1.648438 -5.601562 2.257812 -5.863281 3.0625 -5.875 C 3.820312 -5.875 4.390625 -5.585938 4.765625 -5.015625 C 5.117188 -4.503906 5.296875 -3.785156 5.296875 -2.859375 L 5.296875 -2.671875 L 1.484375 -2.671875 C 1.546875 -1.609375 1.910156 -0.960938 2.578125 -0.734375 C 2.785156 -0.671875 3.054688 -0.640625 3.390625 -0.640625 C 3.734375 -0.640625 4.144531 -0.734375 4.625 -0.921875 Z M 4.390625 -3.359375 C 4.347656 -3.929688 4.242188 -4.359375 4.078125 -4.640625 C 3.785156 -5.117188 3.28125 -5.265625 2.5625 -5.078125 C 2.164062 -4.972656 1.867188 -4.710938 1.671875 -4.296875 C 1.554688 -4.046875 1.492188 -3.734375 1.484375 -3.359375 Z M 4.390625 -3.359375 "/></g></g></g><g fill="#7e921c" fill-opacity="1"><g transform="translate(224.525386, 262.753634)"><g><path d="M 1.84375 -1.5625 C 1.820312 -1.195312 1.867188 -0.953125 1.984375 -0.828125 C 2.097656 -0.710938 2.265625 -0.65625 2.484375 -0.65625 C 2.703125 -0.65625 3.019531 -0.710938 3.4375 -0.828125 L 3.59375 -0.09375 C 3.15625 0.0195312 2.804688 0.0820312 2.546875 0.09375 C 2.285156 0.101562 2.0625 0.0820312 1.875 0.03125 C 1.6875 -0.0078125 1.523438 -0.0859375 1.390625 -0.203125 C 1.097656 -0.460938 0.960938 -0.898438 0.984375 -1.515625 L 0.984375 -8.125 L 1.84375 -8.1875 Z M 1.84375 -1.5625 "/></g></g></g><g fill="#7e921c" fill-opacity="1"><g transform="translate(231.300597, 262.753634)"><g><path d="M 4.03125 -0.171875 C 3.550781 0.00390625 3.070312 0.09375 2.59375 0.09375 C 2.132812 0.09375 1.796875 -0.00390625 1.578125 -0.203125 C 1.335938 -0.421875 1.21875 -0.785156 1.21875 -1.296875 C 1.21875 -1.335938 1.21875 -1.375 1.21875 -1.40625 C 1.21875 -1.4375 1.222656 -1.472656 1.234375 -1.515625 L 1.25 -5.09375 L 0.3125 -5.09375 L 0.328125 -5.796875 L 1.28125 -5.796875 C 1.28125 -6.359375 1.265625 -6.757812 1.234375 -7 L 2.09375 -7.140625 L 2.125 -5.796875 L 3.703125 -5.796875 L 3.703125 -5.09375 L 2.109375 -5.09375 L 2.09375 -1.5625 C 2.070312 -1.226562 2.097656 -1.003906 2.171875 -0.890625 C 2.253906 -0.785156 2.335938 -0.71875 2.421875 -0.6875 C 2.515625 -0.664062 2.664062 -0.65625 2.875 -0.65625 C 3.082031 -0.65625 3.414062 -0.726562 3.875 -0.875 Z M 4.03125 -0.171875 "/></g></g></g><g fill="#7e921c" fill-opacity="1"><g transform="translate(238.852747, 262.753634)"><g><path d="M 0.328125 -5.796875 L 1.265625 -5.796875 L 2.953125 -0.671875 L 4.65625 -5.796875 L 5.609375 -5.796875 L 2.515625 2.703125 L 1.53125 2.359375 C 2.207031 1.097656 2.625 0.3125 2.78125 0 L 2.359375 0 Z M 0.328125 -5.796875 "/></g></g></g><g fill="#7e921c" fill-opacity="1"><g transform="translate(248.114164, 262.753634)"><g><path d="M 0.625 -3.359375 L 3.640625 -3.359375 L 3.640625 -2.59375 L 0.625 -2.59375 Z M 0.625 -3.359375 "/></g></g></g><g fill="#7e921c" fill-opacity="1"><g transform="translate(255.666314, 262.753634)"><g><path d="M 1.109375 -7.796875 L 5.53125 -7.796875 L 5.484375 -6.984375 L 1.96875 -6.984375 L 1.96875 -4.375 L 5.09375 -4.375 L 5.09375 -3.59375 L 1.96875 -3.59375 L 1.96875 0 L 1.109375 0 Z M 1.109375 -7.796875 "/></g></g></g><g fill="#7e921c" fill-opacity="1"><g transform="translate(264.937756, 262.753634)"><g><path d="M 1.859375 -3.71875 C 1.867188 -3.46875 1.875 -3.144531 1.875 -2.75 L 1.875 0 L 1.03125 0 C 1.03125 -3.539062 1.007812 -5.472656 0.96875 -5.796875 L 1.796875 -5.875 L 1.796875 -4.46875 C 2.242188 -5.40625 2.84375 -5.875 3.59375 -5.875 C 3.851562 -5.875 4.066406 -5.851562 4.234375 -5.8125 L 4.046875 -4.921875 C 3.878906 -4.992188 3.695312 -5.03125 3.5 -5.03125 C 3.300781 -5.039062 3.117188 -5 2.953125 -4.90625 C 2.796875 -4.8125 2.648438 -4.695312 2.515625 -4.5625 C 2.378906 -4.4375 2.257812 -4.296875 2.15625 -4.140625 Z M 1.859375 -3.71875 "/></g></g></g><g fill="#7e921c" fill-opacity="1"><g transform="translate(272.489906, 262.753634)"><g><path d="M 4.796875 -0.171875 C 4.304688 0.00390625 3.816406 0.09375 3.328125 0.09375 C 2.316406 0.09375 1.59375 -0.207031 1.15625 -0.8125 C 0.789062 -1.300781 0.609375 -2.007812 0.609375 -2.9375 C 0.609375 -3.863281 0.816406 -4.582031 1.234375 -5.09375 C 1.648438 -5.601562 2.257812 -5.863281 3.0625 -5.875 C 3.820312 -5.875 4.390625 -5.585938 4.765625 -5.015625 C 5.117188 -4.503906 5.296875 -3.785156 5.296875 -2.859375 L 5.296875 -2.671875 L 1.484375 -2.671875 C 1.546875 -1.609375 1.910156 -0.960938 2.578125 -0.734375 C 2.785156 -0.671875 3.054688 -0.640625 3.390625 -0.640625 C 3.734375 -0.640625 4.144531 -0.734375 4.625 -0.921875 Z M 4.390625 -3.359375 C 4.347656 -3.929688 4.242188 -4.359375 4.078125 -4.640625 C 3.785156 -5.117188 3.28125 -5.265625 2.5625 -5.078125 C 2.164062 -4.972656 1.867188 -4.710938 1.671875 -4.296875 C 1.554688 -4.046875 1.492188 -3.734375 1.484375 -3.359375 Z M 4.390625 -3.359375 "/></g></g></g><g fill="#7e921c" fill-opacity="1"><g transform="translate(281.761337, 262.753634)"><g><path d="M 4.796875 -0.171875 C 4.304688 0.00390625 3.816406 0.09375 3.328125 0.09375 C 2.316406 0.09375 1.59375 -0.207031 1.15625 -0.8125 C 0.789062 -1.300781 0.609375 -2.007812 0.609375 -2.9375 C 0.609375 -3.863281 0.816406 -4.582031 1.234375 -5.09375 C 1.648438 -5.601562 2.257812 -5.863281 3.0625 -5.875 C 3.820312 -5.875 4.390625 -5.585938 4.765625 -5.015625 C 5.117188 -4.503906 5.296875 -3.785156 5.296875 -2.859375 L 5.296875 -2.671875 L 1.484375 -2.671875 C 1.546875 -1.609375 1.910156 -0.960938 2.578125 -0.734375 C 2.785156 -0.671875 3.054688 -0.640625 3.390625 -0.640625 C 3.734375 -0.640625 4.144531 -0.734375 4.625 -0.921875 Z M 4.390625 -3.359375 C 4.347656 -3.929688 4.242188 -4.359375 4.078125 -4.640625 C 3.785156 -5.117188 3.28125 -5.265625 2.5625 -5.078125 C 2.164062 -4.972656 1.867188 -4.710938 1.671875 -4.296875 C 1.554688 -4.046875 1.492188 -3.734375 1.484375 -3.359375 Z M 4.390625 -3.359375 "/></g></g></g></svg>